<?xml version="1.0" encoding="UTF-8" standalone="no"?>
<!-- Created with Inkscape (http://www.inkscape.org/) -->

<svg
   width="142.07039mm"
   height="138.46286mm"
   viewBox="0 0 142.07039 138.46286"
   version="1.1"
   id="svg1"
   xml:space="preserve"
   xmlns:inkscape="http://www.inkscape.org/namespaces/inkscape"
   xmlns:sodipodi="http://sodipodi.sourceforge.net/DTD/sodipodi-0.dtd"
   xmlns="http://www.w3.org/2000/svg"
   xmlns:svg="http://www.w3.org/2000/svg"><sodipodi:namedview
     id="namedview1"
     pagecolor="#ffffff"
     bordercolor="#999999"
     borderopacity="1"
     inkscape:showpageshadow="2"
     inkscape:pageopacity="0"
     inkscape:pagecheckerboard="0"
     inkscape:deskcolor="#d1d1d1"
     inkscape:document-units="mm" /><defs
     id="defs1" /><g
     inkscape:label="Layer 1"
     inkscape:groupmode="layer"
     id="layer1"
     transform="translate(-27.593915,-73.998609)"><path
       id="path1-2"
       style="stroke-width:0.264583"
       d="m 97.082699,73.998607 a 6.7616715,6.4235883 0 0 0 -6.761865,6.423381 6.7616715,6.4235883 0 0 0 6.761865,6.423897 6.7616715,6.4235883 0 0 0 6.761341,-6.423897 6.7616715,6.4235883 0 0 0 -6.761341,-6.423381 z m 21.781611,2.355929 c -4.68312,0 -8.46666,3.783546 -8.46666,8.466666 0,4.683122 3.78354,8.466667 8.46666,8.466667 h 8.46667 c 4.68312,0 8.46667,3.783546 8.46667,8.466671 0,4.68312 -3.78355,8.46666 -8.46667,8.46666 H 42.664828 c -4.683125,0 -8.467183,3.78355 -8.467183,8.46667 0,4.68312 3.784058,8.46667 8.467183,8.46667 h 84.666152 c 14.02291,0 25.4,-11.3771 25.4,-25.4 0,-14.022907 -11.37709,-25.400004 -25.4,-25.400004 z M 63.27649,76.99584 a 6.7616715,6.4235883 0 0 0 -6.761344,6.423381 6.7616715,6.4235883 0 0 0 6.761344,6.423897 6.7616715,6.4235883 0 0 0 6.761861,-6.423897 6.7616715,6.4235883 0 0 0 -6.761861,-6.423381 z m 19.576583,12.012704 a 6.7616715,6.4235883 0 0 0 -6.761861,6.42338 6.7616715,6.4235883 0 0 0 6.761861,6.423896 6.7616715,6.4235883 0 0 0 6.761344,-6.423896 6.7616715,6.4235883 0 0 0 -6.761344,-6.42338 z M 42.664828,135.6212 c -4.683125,0 -8.467183,3.78355 -8.467183,8.46667 0,4.68312 3.784058,8.46666 8.467183,8.46666 H 144.26431 c 4.68312,0 8.46667,3.78354 8.46667,8.46667 0,4.68312 -3.78355,8.46667 -8.46667,8.46667 h -8.46666 c -4.68312,0 -8.46667,3.78355 -8.46667,8.46666 0,4.68312 3.78355,8.46667 8.46667,8.46667 h 8.46666 c 14.0229,0 25.4,-11.37709 25.4,-25.4 0,-14.02291 -11.3771,-25.4 -25.4,-25.4 z m 0,25.4 c -4.683125,0 -8.467183,3.78354 -8.467183,8.46667 0,4.68311 3.784058,8.46666 8.467183,8.46666 h 33.86615 c 4.683126,0 8.466667,3.78354 8.466667,8.46667 0,4.68311 -3.783541,8.46667 -8.466667,8.46667 h -8.46615 c -4.683125,0 -8.467183,3.78354 -8.467183,8.46666 0,4.68312 3.784058,8.46667 8.467183,8.46667 h 8.46615 c 14.022906,0 25.400002,-11.37711 25.400002,-25.4 0,-14.02291 -11.377096,-25.4 -25.400002,-25.4 z m 69.397832,5.87458 a 6.7616715,6.4235883 0 0 0 -6.76186,6.42338 6.7616715,6.4235883 0 0 0 6.76186,6.42389 6.7616715,6.4235883 0 0 0 6.76135,-6.42389 6.7616715,6.4235883 0 0 0 -6.76135,-6.42338 z m -62.920708,18.87636 a 6.7616715,6.4235883 0 0 0 -6.761861,6.42338 6.7616715,6.4235883 0 0 0 6.761861,6.42338 6.7616715,6.4235883 0 0 0 6.761862,-6.42338 6.7616715,6.4235883 0 0 0 -6.761862,-6.42338 z m 64.807928,5.348 a 6.7616715,6.4235883 0 0 0 -6.76134,6.42338 6.7616715,6.4235883 0 0 0 6.76134,6.4239 6.7616715,6.4235883 0 0 0 6.76187,-6.4239 6.7616715,6.4235883 0 0 0 -6.76187,-6.42338 z m 25.16849,0.94361 a 6.7616715,6.4235883 0 0 0 -6.76186,6.4239 6.7616715,6.4235883 0 0 0 6.76186,6.42338 6.7616715,6.4235883 0 0 0 6.76135,-6.42338 6.7616715,6.4235883 0 0 0 -6.76135,-6.4239 z m -104.762595,7.55044 a 6.7616715,6.4235883 0 0 0 -6.761861,6.4239 6.7616715,6.4235883 0 0 0 6.761861,6.42338 6.7616715,6.4235883 0 0 0 6.761344,-6.42338 6.7616715,6.4235883 0 0 0 -6.761344,-6.4239 z" /></g></svg>
