<svg xmlns="http://www.w3.org/2000/svg" xml:space="preserve" viewBox="0 0 125.07666 141.89188">
  <path fill-rule="evenodd" d="M15.766758-.000001C7.03262-.000001.000001 7.030373.000001 15.764512V126.12737c0 8.73409 7.032619 15.76451 15.766757 15.76451h93.543145c8.73418 0 15.76676-7.03042 15.76676-15.76451V15.764512c0-8.734139-7.03258-15.764513-15.76676-15.764513zm2.351185 13.397744h38.638332V65.69034H11.811698V19.703989c0-3.493647 2.812598-6.306246 6.306245-6.306246zm49.14953 0h39.69124c3.49369 0 6.30629 2.812599 6.30629 6.306246V65.69034h-45.99753zm17.3216 6.69216s-7.11615 2.778327-8.43439 5.061517c-1.31824 2.28316-.53648 5.20221 1.74663 6.5204 2.28324 1.3182 5.2022.53653 6.52048-1.74667 1.31816-2.2832.16706-9.835247.16706-9.835247zM40.554586 22.87608s-7.11619 2.77833-8.434386 5.06148c-1.318238 2.2832-.536524 5.20225 1.746673 6.52044 2.283197 1.3182 5.202202.53653 6.520397-1.74667 1.318174-2.2832.167489-9.83525.167489-9.83525zm68.003607 9.66124s-7.11615 2.77833-8.43439 5.06152c-1.31815 2.2832-.53648 5.20445 1.74667 6.52265 2.28324 1.31819 5.20225.53428 6.52044-1.74888 1.3182-2.28319.16706-9.83529.16706-9.83529zm-23.41149 12.82s-7.1161 2.78052-8.43434 5.06372c-1.31824 2.2832-.53653 5.2022 1.74663 6.5204 2.28324 1.31824 5.2022.53657 6.52048-1.74663 1.31815-2.2832.16706-9.83749.16706-9.83749zm-49.423902 3.15871s-7.116147 2.78053-8.434343 5.06372c-1.318238 2.2832-.536524 5.20221 1.74663 6.5204 2.283196 1.3182 5.202202.53653 6.520397-1.74663 1.318239-2.28319.167489-9.83749.167489-9.83749zM11.811698 76.20154h44.944577v52.29264H18.117943c-3.493647 0-6.306245-2.81264-6.306245-6.30629zm55.455775 0h45.99758v45.98635c0 3.49365-2.81265 6.30629-6.30629 6.30629h-39.69124zm38.68968 6.50257s-7.11619 2.77828-8.43439 5.06148c-1.31815 2.28319-.53648 5.20444 1.74668 6.52264 2.28324 1.3182 5.2022.53432 6.52039-1.74887 1.3182-2.2832.16749-9.83525.16749-9.83525zm-77.294598 6.68991s-7.116147 2.77833-8.434343 5.06153c-1.318238 2.28319-.536524 5.2022 1.746673 6.52039 2.283196 1.31824 5.202159.53653 6.520397-1.74663 1.318196-2.28319.167057-9.83529.167057-9.83529zm20.437896 4.08668s-7.11619 2.77833-8.434364 5.06152c-1.318195 2.2832-.536524 5.20445 1.746651 6.52265 2.28324 1.31819 5.204447.53432 6.522642-1.74888 1.318195-2.2832.164899-9.83529.164899-9.83529zm34.930942 8.1756s-7.11615 2.77837-8.43439 5.06152c-1.31823 2.2832-.53648 5.20445 1.74668 6.52264 2.28319 1.31824 5.2044.53433 6.5226-1.74887 1.31819-2.2832.16489-9.83529.16489-9.83529zm-44.964735 8.1756s-7.116148 2.77837-8.434343 5.06152c-1.318238 2.2832-.534323 5.2022 1.748874 6.52044 2.283197 1.3182 5.202203.53653 6.520398-1.74667 1.318195-2.2832.164898-9.83529.164898-9.83529z"/>
</svg>
