<svg xmlns="http://www.w3.org/2000/svg" xml:space="preserve" viewBox="0 0 129.20459 130.95563">
  <path fill-rule="evenodd" d="M111.46119-157.28297a5.083008 5.083008 0 0 0-5.08393 5.08393v96.515039l-2.70267.006c-2.61434.005-4.068461 2.18701-4.719101 4.71909l-5.116479 19.91248c-.650634 2.53209 2.104748 4.71909 4.719089 4.71909H218.10687c2.61435 0 5.46643-2.21384 4.71909-4.71909l-6.00635-20.13469c-.74734-2.50523-2.10474-4.72409-4.71909-4.71909l-3.90519.008v-96.306829a5.083008 5.083008 0 0 0-5.08186-5.08393zm5.08186 10.16579h35.83709v42.52298h-35.83709zm44.29032 0h37.19617v42.52298h-37.19617zm14.37586 8.02741-2.66392 1.53118s-.78615.45026-1.64486 1.02526c-.42935.2875-.87901.60603-1.28881.94361-.4098.33758-.78212.60857-1.11931 1.24437-.78488 1.47993-.52618 3.50489 1.09192 4.36304 1.61811.85816 3.43967-.0631 4.22455-1.54306.50057-.94386.597-1.84981.75964-2.77916.16266-.92934.262-1.73633.262-1.73633zm-35.59369 3.56051-2.66237 1.52962s-.78563.45027-1.64434 1.02526c-.42935.2875-.88108.60552-1.29088.9431-.40979.33758-.78005.61065-1.11724 1.24643-.78488 1.47994-.52824 3.5049 1.08985 4.36305 1.61811.85816 3.43967-.0647 4.22455-1.54461.50057-.94386.597-1.85034.75965-2.77968.16265-.92934.26148-1.73633.26148-1.73633zm36.92953 13.34596-2.66392 1.53117s-.78615.45026-1.64486 1.02526c-.42936.2875-.88108.60603-1.29088.94361-.4098.33758-.78006.61014-1.11724 1.24592-.78489 1.47996-.52825 3.5049 1.08985 4.36304 1.61812.85819 3.43966-.0646 4.22455-1.54461.50056-.94385.5975-1.84982.76016-2.77916.16265-.92934.26148-1.73632.26148-1.73632zm16.90646 1.78128-2.66444 1.52911s-.78562.45025-1.64434 1.02526c-.42936.2875-.87953.6081-1.28933.94568-.4098.33758-.7816.60806-1.11879 1.24385-.78489 1.47995-.5262 3.5054 1.09192 4.36356 1.61812.85819 3.43965-.0651 4.22455-1.54513.50056-.94385.59492-1.84827.75757-2.77761.16265-.92934.26355-1.73787.26355-1.73787zm-50.72093 1.33377-2.66392 1.52911s-.78613.45233-1.64486 1.02732c-.42937.28751-.879.60603-1.28881.94362-.40981.33758-.78212.60804-1.11931 1.24385-.78491 1.47998-.52623 3.50538 1.09192 4.36356 1.61815.85819 3.43964-.0651 4.22455-1.54513.50058-.94387.59544-1.84773.75809-2.77709.16265-.92937.26355-1.73633.26355-1.73633zm-26.18755 22.927799h35.83709v40.3624l-35.83709.0734zm44.29032 0h37.19617v40.26886l-37.19617.076zm-15.8781 4.21266-2.66392 1.52963s-.78613.45024-1.64486 1.02526c-.42937.2875-.87901.60757-1.28881.94516-.40981.33759-.78212.60856-1.11931 1.24437-.7849 1.47997-.52622 3.50487 1.09192 4.36304 1.61815.85819 3.43965-.0646 4.22455-1.54461.50058-.94388.59492-1.84825.75757-2.77761.16265-.92935.26407-1.73839.26407-1.73839zm30.25396.44339-2.66392 1.53117s-.78614.45077-1.64486 1.02578c-.42935.2875-.87901.60551-1.28881.94309-.4098.33759-.78212.60857-1.11931 1.24437-.78487 1.47995-.5262 3.50695 1.09192 4.36511 1.61813.85817 3.43966-.0651 4.22455-1.54513.50058-.94387.597-1.84981.75964-2.77915.16266-.92935.262-1.73633.262-1.73633zm8.89817 15.57217-2.66392 1.53169s-.78562.45026-1.64435 1.02526c-.42936.28751-.87952.60551-1.28932.9431-.40981.33758-.7816.60858-1.1188 1.24437-.78488 1.47996-.52674 3.50694 1.09141 4.36511 1.61812.85816 3.43965-.0647 4.22455-1.54461.50058-.94389.59544-1.85032.75809-2.77968.16265-.92935.26355-1.73633.26355-1.73633zm-47.60536 2.22467-2.66392 1.53118s-.78613.45077-1.64486 1.02577c-.42936.28751-.87901.60551-1.28881.9431-.40981.33758-.78212.60857-1.11931 1.24437-.7849 1.47997-.52622 3.50694 1.09192 4.36511 1.61814.85817 3.43965-.0651 4.22455-1.54513.50058-.94388.59544-1.8498.75809-2.77916.16265-.92936.26355-1.73633.26355-1.73633z" color="#000" style="-inkscape-stroke:none" transform="translate(-93.742441 157.28297)"/>
</svg>
