<?xml version="1.0" encoding="UTF-8" standalone="no"?>
<!-- Created with Inkscape (http://www.inkscape.org/) -->

<svg
   width="142.22223mm"
   height="149.24156mm"
   viewBox="0 0 142.22223 149.24156"
   version="1.1"
   id="svg1"
   xml:space="preserve"
   xmlns:inkscape="http://www.inkscape.org/namespaces/inkscape"
   xmlns:sodipodi="http://sodipodi.sourceforge.net/DTD/sodipodi-0.dtd"
   xmlns="http://www.w3.org/2000/svg"
   xmlns:svg="http://www.w3.org/2000/svg"><sodipodi:namedview
     id="namedview1"
     pagecolor="#ffffff"
     bordercolor="#999999"
     borderopacity="1"
     inkscape:showpageshadow="2"
     inkscape:pageopacity="0"
     inkscape:pagecheckerboard="0"
     inkscape:deskcolor="#d1d1d1"
     inkscape:document-units="mm" /><defs
     id="defs1" /><g
     inkscape:label="Layer 1"
     inkscape:groupmode="layer"
     id="layer1"
     transform="translate(-371.07414,67.932615)"><path
       id="path5"
       d="m 480.96158,-67.927655 c -1.19784,-0.08662 -2.3211,0.967908 -2.3211,2.548371 0,0.98944 -0.13657,1.240865 -0.9478,1.742963 -2.59285,1.604775 -3.4267,3.328107 -3.4267,7.083492 0,3.14892 0.32751,3.750787 2.04142,3.750787 1.58807,0 1.94954,-0.596347 2.10752,-3.475672 0.12207,-2.225346 0.20879,-2.518487 0.92558,-3.135054 1.01875,-0.876279 2.0591,-0.863514 2.95849,0.03589 l 0.71597,0.715982 v 9.107834 c 0,8.949881 -0.0111,9.119547 -0.63395,9.782806 -0.67161,0.71489 -1.92634,0.88621 -2.85424,0.389604 -0.77416,-0.414313 -1.17793,-1.848316 -1.17793,-4.182541 0,-2.460705 -0.42854,-3.11455 -2.04144,-3.11455 -1.8526,0 -2.10882,0.574828 -1.99415,4.474745 0.0936,3.188478 0.14187,3.412948 0.98655,4.614864 0.4883,0.694838 1.43978,1.568269 2.11434,1.941182 l 1.22634,0.678389 v 8.752976 8.753543 l -1.22407,-1.557271 c -3.96898,-5.049465 -9.90734,-8.967435 -15.27199,-10.076147 -2.76379,-0.571194 -3.71904,-0.282418 -4.62,1.394939 -0.80917,1.506427 -0.48438,2.27144 2.18612,5.146868 2.59038,2.789176 4.75646,6.090092 6.077,9.262193 1.16069,2.788103 2.27419,6.7014119 2.51648,8.8429773 l 0.19822,1.7492248 -2.2949,-0.5308584 c -1.26197,-0.2920591 -6.69077,-1.4747573 -12.06404,-2.6275517 -11.70475,-2.5111558 -15.90289,-3.6739806 -19.39359,-5.372988 -3.96044,-1.927654 -5.98445,-3.971816 -5.97563,-6.036015 0.005,-1.368833 1.45245,-3.804785 3.42498,-5.766582 3.70285,-3.682713 8.22328,-6.702148 16.11157,-10.761942 2.64654,-1.362068 4.97199,-2.68511 5.16738,-2.940252 0.9643,-1.259198 0.0438,-3.836567 -1.50943,-4.226401 -0.907,-0.227651 -12.88235,1.482175 -21.34331,3.047338 -8.32121,1.53931 -16.91054,3.550283 -22.60099,5.153701 -0.229,0.0602 -0.20411,0.04906 -0.43916,0.111641 -2.94163,0.783131 -6.15766,1.668652 -8.02788,2.484006 -1.54643,0.674189 -4.06045,1.679246 -6.216,2.528437 -1.44095,0.567666 -2.17941,0.854077 -2.69191,1.052613 -0.31977,0.140872 -0.63673,0.281556 -0.98255,0.440866 -2.64345,1.217769 -5.81912,2.843235 -7.55683,3.975209 -8.66106,5.641991 -12.2935,12.165734 -10.65145,19.1287286 1.22164,5.1801957 4.46849,9.2859214 9.67289,12.2315011 2.57285,1.4561843 4.99209,2.4149753 9.14429,3.6232003 l 3.64541,1.060582 0.14581,6.687622 c 0.14539,6.66742 0.1485,6.691581 0.95578,8.06491 0.51082,0.868991 1.29136,1.659944 2.11434,2.142249 l 1.30438,0.7644 -0.0104,8.648742 -0.0104,8.648168 -0.93757,-1.166528 c -5.32532,-6.624487 -12.27262,-10.522706 -19.11619,-10.726631 -1.93465,-0.05765 -2.19127,0.0022 -2.69761,0.624846 -1.10623,1.361062 -0.79187,2.042706 2.22996,4.832451 4.15454,3.835403 6.85725,7.993883 8.71767,13.413979 1.39809,4.07321 1.91606,7.420621 2.10635,13.61732 l 0.17545,5.722164 -1.99244,0.663006 c -2.40162,0.799197 -3.34276,1.63953 -3.32987,2.971581 0.0104,1.042494 0.39091,1.68999 1.30267,2.212879 h 5.8e-4 c 0.75,0.430181 0.817,0.429266 6.85337,-0.09056 11.50699,-0.990866 24.07621,-2.487756 34.31472,-4.086283 59.94316,-9.358802 89.75055,-25.893185 87.08434,-48.306273 -0.61533,-5.172723 -2.6531,-9.815579 -5.88676,-13.412271 l -1.4838,-1.650685 0.016,-13.51422669 0.016,-13.51422731 1.36646,-0.874899 c 0.83507,-0.534551 1.65132,-1.385444 2.09838,-2.187253 l 0.73193,-1.312344 0.0894,-9.478076 c 0.0624,-6.619422 -0.0142,-9.847884 -0.25347,-10.704981 -0.38755,-1.388764 -1.97443,-3.394208 -3.17948,-4.017359 -0.65639,-0.33944 -0.83422,-0.665244 -0.95692,-1.753785 -0.19006,-1.686187 -0.88153,-2.480019 -2.16047,-2.480019 -1.40853,0 -2.14225,0.851528 -2.14225,2.486284 0,1.109649 -0.10703,1.359891 -0.6727,1.574933 -1.20342,0.457543 -2.61094,1.869066 -3.21137,3.219925 -0.41964,0.944083 -0.62685,2.18088 -0.72397,4.326649 l -0.13613,3.004617 -1.78341,0.894266 c -3.74607,1.877332 -7.72016,5.402801 -10.40537,9.231437 l -1.29412,1.84549 -0.0821,-7.532334 c -0.0757,-6.96832 -0.043,-7.553596 0.43745,-7.823397 1.28064,-0.719209 3.24011,-2.97479 3.54687,-4.082862 0.45195,-1.632474 0.44189,-19.086482 -0.012,-20.601138 -0.41739,-1.393137 -1.97483,-3.258761 -3.11455,-3.730851 -0.74995,-0.310636 -0.86828,-0.530589 -0.99451,-1.844351 -0.10367,-1.079615 -0.32414,-1.637565 -0.79688,-2.020356 -0.37706,-0.305331 -0.78434,-0.460977 -1.18361,-0.489852 z m 22.68699,29.41677 c 0.58706,0.03842 1.13926,0.297368 1.50887,0.767246 0.58183,0.739721 0.60433,1.104733 0.60433,9.782805 v 9.014992 l -0.71541,0.715413 c -0.96705,0.967069 -2.04587,0.915472 -3.10998,-0.148669 l -0.86465,-0.864074 0.0849,-9.077076 0.0849,-9.077646 0.68864,-0.557066 c 0.50951,-0.412328 1.13141,-0.594348 1.71847,-0.555925 z m -7.14957,11.664181 c 0.4378,0 0.20765,1.328045 -0.37877,2.187247 -1.00866,1.47789 -3.07422,5.716099 -3.90856,8.019907 -1.71196,4.727121 -2.24017,7.8468322 -2.40768,14.2171108 -0.10824,4.1141802 -0.25464,5.8958107 -0.48302,5.8731047 -0.67603,-0.067237 -3.54434,-1.2553133 -3.75022,-1.5532915 -0.11788,-0.1705488 -0.21652,-0.6765408 -0.21872,-1.12437886 -0.006,-1.18772428 -0.82866,-4.98177134 -1.6188,-7.47025414 l -0.68579,-2.1604686 0.60775,-1.7765714 c 1.53275,-4.478899 4.22284,-8.868819 7.35804,-12.007081 1.86143,-1.863257 4.91692,-4.205324 5.48577,-4.205324 z m -31.70085,3.207963 c 0.53364,0 3.25995,1.663556 4.97144,3.033097 5.53936,4.432614 9.63365,11.8773849 11.04219,20.07881751 0.10325,0.60147855 0.0836,1.07605686 -0.0439,1.05489393 -0.12756,-0.0211633 -1.89318,-0.50033752 -3.92338,-1.0651447 l -3.69156,-1.02698544 -0.33832,-2.3609652 c -0.94517,-6.5968871 -3.59004,-13.4896581 -6.90351,-17.9906871 -0.69757,-0.947588 -1.19819,-1.723026 -1.113,-1.723026 z m -39.22577,2.187247 c -0.32815,0.669341 -0.58015,1.330586 -0.75699,1.982194 0.17684,-0.651607 0.42884,-1.312855 0.75699,-1.982194 z m 0.68124,9.222327 c 0.41222,0.545706 0.89648,1.074701 1.4519,1.585179 0.55543,0.51049 1.18207,1.0023508 1.87909,1.4741184 -0.69702,-0.4717676 -1.32366,-0.9636284 -1.87909,-1.4741184 -0.55542,-0.510478 -1.03968,-1.039473 -1.4519,-1.585179 z m 5.63216,4.4120813 c 1.21141,0.6217157 2.30213,1.1393693 3.50928,1.6205059 -1.20715,-0.4811366 -2.29787,-0.9987902 -3.50928,-1.6205059 z m -4.37678,5.363321 c 0.14765,-0.010158 0.51399,0.075724 1.39381,0.4192241 1.15049,0.4491607 3.19663,1.35570488 5.96765,2.525584 0.92055,0.38863701 1.89815,0.7958908 2.93684,1.2177933 3.16847,1.2869805 8.21541,3.2231221 13.88959,4.6154323 5.37348,1.2963279 10.96813,1.9493797 16.74668,2.9436723 2.95656,0.5087259 5.61877,1.0560177 8.05011,1.7549237 2.90055,0.833796 5.15879,1.797514 6.97013,2.904367 1.71845,1.042063 3.02169,2.174368 4.01679,3.267774 1.14622,1.259458 1.95807,2.548775 2.53755,3.758191 1.21877,2.543705 1.61909,5.169857 1.58688,7.55797 -4.7e-4,0.03517 -4.7e-4,0.07021 -10e-4,0.105374 -0.0404,2.143692 -0.48092,4.152272 -1.02014,5.650959 -0.69939,1.943704 -1.18085,2.182051 -1.2628,2.1525 -0.1755,-0.06329 -0.15085,-0.455598 -0.061,-2.420784 0.0725,-1.582125 0.0948,-3.31237 -0.135,-5.271041 -0.003,-0.03089 -0.006,-0.06199 -0.0111,-0.09284 -0.2561,-2.100673 -0.84707,-4.239417 -1.95656,-6.204602 -0.52766,-0.934651 -1.22678,-1.926409 -2.1713,-2.89469 -0.81858,-0.839186 -1.89563,-1.736593 -3.33271,-2.581412 -1.51843,-0.884081 -3.4701,-1.732173 -6.15447,-2.532418 -2.2614,-0.674149 -4.76753,-1.23576 -7.66961,-1.799917 -5.50541,-1.070281 -11.45177,-1.963829 -16.868,-3.5109928 -5.86915,-1.6536606 -10.89002,-3.8586923 -14.04851,-5.4071669 -1.02461,-0.5023325 -1.98715,-1.0050178 -2.87589,-1.4929111 -2.71646,-1.49125779 -4.57444,-2.75287584 -5.55071,-3.5166917 -1.00265,-0.7844385 -1.10318,-1.0482144 -1.06344,-1.1124196 0.0116,-0.01865 0.0369,-0.032494 0.086,-0.035878 z m -24.8469,2.53412638 c 0.11097,0.31087432 0.15379,0.67659591 0.15379,1.16710152 0,-0.49050561 -0.0429,-0.8562272 -0.15379,-1.16710152 z m -2.03402,6.31910172 c 0.35773,0 0.99625,0.2719104 1.41886,0.6043331 l 0.76839,0.6043443 v 9.3111852 c 0,8.922117 -0.0243,9.335544 -0.58327,9.894444 -0.36107,0.361058 -0.97213,0.583268 -1.60398,0.583268 -0.63186,0 -1.24291,-0.22221 -1.60399,-0.583268 -0.55889,-0.5589 -0.58326,-0.972327 -0.58326,-9.894444 V 7.6081408 l 0.76895,-0.6043443 c 0.42261,-0.3324227 1.06058,-0.6043331 1.4183,-0.6043331 z m 6.56231,9.8317806 2.02434,0.187975 c 3.74001,0.347601 16.46023,2.254468 19.93756,2.988666 8.61049,1.818005 13.75441,4.05046 17.05199,7.400759 0.6048,0.614462 1.1188,1.075638 1.57778,1.416008 1.19124,1.667439 2.78213,4.702377 1.74467,8.187941 -0.12285,0.275151 -0.25954,0.692325 -0.39189,1.067988 -0.008,0.0216 -0.0163,0.04323 -0.0239,0.06495 -0.0701,0.201566 -0.13066,0.321499 -0.20619,0.56161 -2.52133,8.016632 -14.58671,17.713511 -32.20836,25.885283 l -2.88898,1.339689 0.19023,-3.292265 c 0.3789,-6.568693 2.4095,-12.887651 5.79109,-18.019723 1.41361,-2.14539 4.69482,-5.709985 6.20973,-6.745722 1.2633,-0.863767 1.73873,-1.909203 1.34197,-2.952788 -0.56646,-1.489913 -2.35898,-1.748597 -6.38289,-0.921613 -6.26846,1.288305 -12.50144,5.587274 -16.62649,11.467676 l -1.51514,2.160479 v -7.730562 -7.730547 l 1.41146,-0.877754 c 1.04587,-0.650142 1.61265,-1.280819 2.18725,-2.433877 0.75307,-1.511165 0.77579,-1.708189 0.77579,-6.790153 z m 46.26769,21.609328 c -0.074,0.571332 -0.22899,1.217452 -0.48075,1.949159 0.25176,-0.731707 0.40665,-1.377827 0.48075,-1.949159 z m -35.872,1.221783 c 0.18406,-2.2e-5 -0.39429,1.082715 -1.28501,2.405969 -4.13878,6.148631 -6.35269,13.284555 -6.68762,21.554646 l -0.17316,4.275382 -1.78112,0.75642 c -0.97969,0.415828 -1.87172,0.755748 -1.9822,0.755284 -0.11047,-4.63e-4 -0.28731,-0.624515 -0.39302,-1.386391 -0.34964,-2.521043 -1.05459,-5.731159 -1.71619,-7.814856 -0.63205,-1.990648 -0.63732,-2.100563 -0.16176,-3.499597 1.5288,-4.497604 4.37513,-9.164235 7.51524,-12.321487 1.73529,-1.744772 5.93913,-4.725292 6.66484,-4.72537 z m -32.96079,3.791225 c 0.0953,0 0.93689,0.407188 1.86999,0.904517 6.24022,3.326005 11.34314,10.637151 13.58029,19.456254 0.64417,2.539384 1.26808,7.635997 0.9347,7.635997 -0.0778,0 -1.86857,0.643363 -3.97976,1.429687 l -3.83907,1.429687 v -2.814943 c -5.2e-4,-6.143549 -0.99981,-12.553496 -2.65888,-17.053129 -1.12744,-3.057798 -3.46256,-7.551125 -4.91447,-9.456999 -0.6415,-0.842075 -1.08814,-1.531071 -0.9928,-1.531071 z m 105.28634,11.483051 c -2.74521,1.455126 -5.78159,2.863044 -9.09301,4.218429 3.31142,-1.355385 6.3478,-2.763303 9.09301,-4.218429 z"
       style="stroke-width:1.10223" /></g></svg>
