<svg xmlns="http://www.w3.org/2000/svg" xml:space="preserve" viewBox="0 0 131.4368 131.3866">
  <path d="M21.8075 130.3196c-4.2242-2.4685-7.327-5.5604-9.0415-9.0096-.903-1.8167-1.1136-2.5426-1.2203-4.2049-.1458-2.2721.1034-2.816 1.2904-2.816 1.037 0 1.5283.5899 1.7269 2.0736.5634 4.2102 3.1369 7.5541 8.3638 10.8677 1.3937.8835 2.4584 1.749 2.5412 2.0656.2801 1.0713-.46 2.0906-1.5182 2.0906-.174 0-1.138-.4802-2.1423-1.067zm24.0077.1341c-8.9538-2.5184-14.6502-6.2477-16.9375-11.0888-1.7662-3.738-.041-9.8434 2.4105-8.5313.88.471 1.0243 1.3123.4685 2.7308-.6952 1.7744-.6383 3.283.1862 4.9375 1.8074 3.6271 7.6753 7.0522 15.6765 9.1504 2.9888.7838 3.6723 1.19 3.6723 2.1825 0 .678-.953 1.5548-1.6696 1.5362-.3306-.008-2.0437-.4214-3.8069-.9173zm34.8628.3986c-.6119-.6119-.6822-1.2989-.2004-1.9564.199-.2714 1.5494-.7744 3.3385-1.2436 8.0012-2.0982 13.869-5.5233 15.6765-9.1504.8358-1.6772.8807-3.1678.1512-5.0186-.58-1.4713-.448-2.1405.5246-2.661 1.5973-.8548 3.0213 1.4424 3.06 4.9361.0206 1.8654-.082 2.3601-.807 3.89-2.1835 4.608-8.4252 8.561-17.2543 10.9279-3.5717.9574-3.794.9711-4.489.276zm25.6462 0c-.5493-.5493-.6759-1.2339-.329-1.7792.1085-.1704 1.2788-1.0215 2.6007-1.8913 5.3245-3.5034 7.716-6.6295 8.2766-10.819.1986-1.4838.6898-2.0737 1.7269-2.0737 1.187 0 1.4362.5439 1.2903 2.816-.2978 4.6408-4.2091 9.6775-10.2618 13.2145-2.071 1.2102-2.5491 1.2873-3.3037.5327zm-42.5474-4.2844c-1.4721-.3666-2.8751-1.1458-3.9363-2.1862l-.935-.9167-1.4693.6883c-1.2072.5654-1.8507.6858-3.6066.675-2.4345-.0149-3.9277-.5491-5.5734-1.994-.954-.8377-1.0997-.8792-2.884-.8213-1.5591.0506-2.1206-.0572-3.2961-.6323-3.7699-1.8444-4.8023-6.6946-2.162-10.1562.9619-1.261 3.0863-2.2994 4.8295-2.3604l1.4714-.0515.0005-2.3375c.0004-2.101-.0498-2.3376-.4964-2.3376-.2733 0-2.347.182-4.6083.4046-12.8081 1.2604-24.4165 3.4184-34.6954 6.4498-5.3167 1.568-5.9626 1.5946-6.2978.259-.3126-1.2453.2436-1.6875 3.4242-2.7226 4.404-1.4332 12.5005-3.4037 18.7562-4.5648l5.4847-1.0181v-17.824c0-18.4225-.0598-19.5874-1.1126-21.6682-1.2069-2.3855-4.1102-4.3257-6.948-4.6432-2.52-.282-2.3581.5234-2.3581-11.7309 0-9.4247.052-10.811.4198-11.1788.522-.522 1.451-.5398 2.1338-.0407.4944.3613.5221.833.5948 10.119l.0762 9.74 1.0057.1608c1.5196.243 4.0596 1.618 5.4505 2.9508 1.546 1.4814 2.4143 2.842 3.1991 5.0138l.611 1.6907.0804 18.5307.0804 18.5307.7888-.1578c.9151-.183 9.3028-1.1185 12.3411-1.3763l2.0704-.1758-.0009-31.0331c-.001-21.4721-.0908-31.3546-.2911-32.0764-.184-.6626-.7993-1.5528-1.6864-2.44-4.492-4.4918-16.8211-7.053-36.1995-7.5197-6.358-.1531-7.1043-.2185-7.547-.6611C.2212 26.8857 0 26.4243 0 26.1304c0-.7717.9466-1.6029 1.8255-1.6029 1.119 0 1.1808-.2376.34-1.3063-1.554-1.9756-2.003-3.2019-2.0156-5.506-.009-1.6336.1222-2.428.557-3.372 1.107-2.4035 3.483-4.3741 5.9051-4.8978.819-.1771.8682-.2542.8682-1.3587 0-2.7786 2.0357-5.9221 4.6695-7.2107 4.1207-2.0161 8.9386-.4435 11.0323 3.601l.883 1.7057 2.0755.033c1.6817.027 2.3621.1735 3.5862.7724 2.8602 1.3993 4.7355 4.4265 4.7355 7.6442v1.5722l.9793.3232c1.2452.411 3.1803 2.186 3.8815 3.5605 1.0985 2.1532.9061 5.2163-.4533 7.2196-.3671.5409-.6675 1.029-.6675 1.0845 0 .0555.4509.2472 1.0019.4259 1.7363.5631 4.9781 2.296 6.404 3.423 1.5884 1.2556 2.8395 2.9593 3.332 4.5375l.3453 1.1062h32.8662l.3452-1.1062c.4926-1.5782 1.7437-3.282 3.332-4.5375 1.426-1.127 4.6678-2.8599 6.4041-3.423 1.0781-.3497 1.2132-.577.6304-1.0606-.2043-.1696-.6394-.9311-.9669-1.6924-.7356-1.71-.646-4.287.2072-5.9577.7108-1.392 2.6403-3.1668 3.8919-3.5798l.9793-.3232v-1.5722c0-3.2177 1.8753-6.2449 4.7355-7.6442 1.224-.599 1.9045-.7455 3.5862-.7723l2.0755-.0331.883-1.7056c2.0934-4.0446 6.9113-5.6172 11.032-3.6011 2.6338 1.2886 4.6695 4.4321 4.6695 7.2107 0 1.1045.0493 1.1816.8682 1.3587 2.4222.5237 4.7982 2.4943 5.9052 4.8978.4347.944.566 1.7384.557 3.372-.0126 2.3041-.4616 3.5304-2.0158 5.506-.8408 1.0687-.7789 1.3063.34 1.3063.879 0 1.8256.8312 1.8256 1.6029 0 .2939-.221.7553-.4912 1.0255-.443.443-1.1827.507-7.547.6535-21.6368.4977-34.9324 3.806-37.6218 9.3614-.5544 1.1453-.5566 1.2765-.5566 32.4555 0 31.2452.001 31.3055.5404 31.3055 2.5132 0 17.4248 1.8805 22.2843 2.8103 1.1369.2175 2.1924.3955 2.3455.3955.1853 0 .2383-1.1863.1583-3.544-.1048-3.0895-.2085-3.7367-.809-5.0485-1.2974-2.834-4.1039-4.865-7.201-5.2115-2.5198-.282-2.3582.5205-2.3582-11.7086 0-10.0623.0307-10.7645.4885-11.1788.5992-.5423 1.377-.566 2.0651-.0631.4944.3613.5221.833.5948 10.119l.0762 9.74 1.0057.1608c2.472.3953 5.8403 2.7916 7.4025 5.2663 1.3736 2.176 1.758 3.807 1.917 8.1334l.1472 4.0116 5.1064 1.2512c2.8084.6881 6.6368 1.7418 8.5075 2.3415 3.6017 1.1545 4.149 1.5613 3.8271 2.8441-.335 1.3353-.981 1.3089-6.2978-.2569-10.2763-3.0263-20.8566-5.024-33.4497-6.3158-2.8985-.2974-5.5132-.5406-5.8104-.5406-.5013 0-.5404.1691-.54 2.3375l.0005 2.3375 1.4714.0515c1.7432.061 3.8677 1.0993 4.8295 2.3604 2.6403 3.4616 1.6079 8.3118-2.162 10.1563-1.1755.575-1.737.6828-3.2961.6322-1.7843-.0578-1.93-.0163-2.884.8213-1.6457 1.445-3.139 1.9792-5.5734 1.9941-1.756.0108-2.3994-.1097-3.6065-.6751l-1.4694-.6882-.935.927c-1.8244 1.8088-5.3508 2.7903-7.8182 2.1758zm4.7661-3.8613c.686-.402 1.4567-1.191 1.956-2.0025.6792-1.1038.9584-1.3392 1.5889-1.3392.4564 0 1.0718.2844 1.5257.7051 2.5899 2.4003 6.0128 2.1767 8.2846-.5411 1.1221-1.3425 1.4998-1.4406 3.2272-.8387 1.6613.5789 3.5082-.057 4.2323-1.457.8103-1.5671.3343-3.7385-1.0132-4.6214-1.2168-.7974-2.3424-.82-3.74-.075-1.5596.831-2.346.8626-3.0168.121-.6111-.6757-2.0684-1.4423-3.2103-1.6885-1.8938-.4085-4.667 1.0101-5.623 2.8764-.2378.4643-.566.9325-.729 1.0404-.5788.383-1.6904.1965-2.1922-.3677-.721-.8106-3.0104-1.827-4.1154-1.827s-3.3944 1.0164-4.1154 1.827c-.5017.5642-1.6133.7506-2.192.3677-.1632-.1079-.4913-.5761-.7291-1.0404-.956-1.8663-3.7292-3.2849-5.623-2.8764-1.1419.2462-2.5992 1.0128-3.2104 1.6885-.6707.7416-1.4572.71-3.0166-.121-1.3977-.745-2.5233-.7223-3.7402.075-1.3474.8829-1.8234 3.0543-1.013 4.6213.724 1.4002 2.5708 2.036 4.2322 1.457 1.7274-.6018 2.105-.5037 3.2272.8388 2.2724 2.7186 5.6927 2.9426 8.2464.5401.4606-.4333 1.0524-.704 1.5386-.704.6595 0 .9248.2187 1.6045 1.3234 1.7286 2.8094 4.8532 3.6374 7.616 2.0182zm-2.8252-13.0737c1.5875 0 2.3111.1423 3.484.685l1.4803.6848 1.1348-1.007c.6242-.554 1.7913-1.2792 2.5937-1.6118l1.4589-.6046v-1.833c0-1.59.0869-1.92.6557-2.4888.764-.7641 1.1417-.8104 1.9563-.2399.5286.3703.5937.6481.5937 2.5329 0 2.0886.0101 2.1193.7347 2.293.404.0969 1.0652.3428 1.4693.5463l.7346.3701V41.0906h-5.61v6.7932c0 5.8194-.0602 6.8534-.4199 7.213-.522.522-1.451.5398-2.1338.041-.4861-.3551-.5235-.8065-.5982-7.213l-.0796-6.8342h-14.916l-.076 10.0398c-.0727 9.5829-.0997 10.057-.5947 10.4188-.6828.499-1.6118.4812-2.1339-.0408-.3666-.3667-.4198-1.685-.4198-10.4188v-9.999h-5.61V108.96l.7346-.3701c.404-.2036 1.0652-.4494 1.4693-.5463l.7346-.1761v-6.9256c0-6.854.006-6.93.5938-7.3415.8512-.5962 1.426-.5158 2.0583.288.5262.669.5537 1.0315.5537 7.2974v6.5935l1.4589.6047c.8024.3326 1.9695 1.0578 2.5937 1.6117l1.1348 1.0071 1.4803-.6849c1.1728-.5426 1.8965-.6849 3.484-.6849zm-1.0686-16.7156c-.5191-.5192-.5341-.8876-.5302-13.0235.002-6.869.0924-12.6214.2004-12.783.108-.1617.4668-.4365.7974-.6105.6257-.3296 1.5628-.0435 1.9995.6104.108.1617.198 5.9141.2003 12.7831.004 12.1359-.011 12.5043-.5302 13.0235-.2938.2939-.7747.5343-1.0686.5343-.2938 0-.7747-.2404-1.0686-.5343zm-11.869-4.427c-.636-.6362-.5862-3.8883.0688-4.481.9688-.8767 2.2614-.3521 2.6162 1.0617.2289.9117-.028 2.95-.433 3.4382-.4352.5243-1.7195.5135-2.2519-.019zm20.952-23.7572c-.4052-.4882-.662-2.5266-.4332-3.4382.3602-1.4354 1.7893-1.9804 2.6626-1.0154.6062.6699.6222 3.8348.0223 4.4346-.5324.5325-1.8166.5433-2.2518.019zM35.2554 26.6699c1.5951-1.1359 2.0556-3.548 1.0268-5.3786-.6525-1.161-2.2777-2.1068-3.6198-2.1068-1.8248 0-2.4885-.9495-1.8058-2.5833 1.1218-2.6848-.1568-5.7546-2.8687-6.8877-1.2976-.5422-2.3147-.5218-4.0292.0808-2.2102.7768-2.6234.4797-2.979-2.1419-.4444-3.2772-4.0047-5.346-7.027-4.0833-1.2747.5327-2.1176 1.3301-2.788 2.6378-.4404.859-.506 1.3399-.3643 2.6714.354 3.3264.1753 3.6275-2.1525 3.6275-2.3998 0-3.965.974-4.9364 3.0722-.9957 2.1507-.3192 4.7938 1.5913 6.217 1.236.9207 1.366 1.1073 1.371 1.9678l.004.7046 3.807.1759c8.9961.4157 15.6873 1.077 20.37 2.013 3.1754.6348 3.5266.636 4.4005.0136zm65.0579.0145c5.1088-.981 11.6078-1.6238 20.6372-2.041l3.8068-.176.004-.7046c.005-.8604.135-1.047 1.3711-1.9678 1.9104-1.4231 2.587-4.0663 1.5913-6.217-.9714-2.098-2.5366-3.0721-4.9364-3.0721-2.3278 0-2.5065-.3011-2.1525-3.6275.1417-1.3315.0761-1.8125-.3643-2.6715-.6704-1.3076-1.5134-2.1051-2.7881-2.6377-3.0223-1.2628-6.5826.806-7.027 4.0833-.3555 2.6215-.7688 2.9187-2.979 2.1419-1.7144-.6026-2.7315-.623-4.0292-.0808-2.7119 1.133-3.9904 4.2028-2.8686 6.8876.6826 1.6339.019 2.5833-1.8058 2.5833-2.8616 0-4.9544 3.0654-3.9308 5.7577.3378.8885 1.7697 2.257 2.3604 2.256.2416-.0005 1.6415-.2317 3.1108-.5138zm-89.2767 71.823c-.8366-.311-1.1529-1.0702-1.1529-2.7674 0-2.2135 1.1554-3.1599 2.612-2.1396.514.36.5938.6585.5938 2.2197 0 2.3349-.6638 3.2038-2.053 2.6873zm-.737-10.191c-.353-.504-.4159-1.7558-.4159-8.2816 0-7.3316.0248-7.7126.5343-8.2221.6419-.6419 1.2786-.6781 2.0778-.1184.591.414.5937.4524.5937 8.396 0 6.8986-.0569 8.0372-.4198 8.4-.6231.6232-1.8763.5312-2.3701-.1739zm102.8782-26.0753c-.3901-.431-.4421-1.405-.4421-8.2816 0-7.4368.0244-7.8174.5342-8.3273.294-.2939.7748-.5343 1.0686-.5343.294 0 .7748.2404 1.0686.5343.51.51.5343.8905.5343 8.3737 0 7.2555-.0363 7.8724-.4885 8.2816-.6452.584-1.7246.562-2.2751-.0464zm0-21.9061c-.6749-.7457-.6137-3.6143.0922-4.3201.2938-.2939.7747-.5343 1.0686-.5343.2938 0 .7747.2404 1.0686.5343.7415.7415.7726 3.7087.0458 4.3665-.6452.5839-1.7246.5619-2.2751-.0464z"/>
</svg>
