<?xml version="1.0" encoding="UTF-8" standalone="no"?>
<svg
   xml:space="preserve"
   viewBox="0 0 12096.301 15805.877"
   version="1.1"
   id="svg1"
   sodipodi:docname="alarm.svg"
   inkscape:version="1.3.2 (091e20e, 2023-11-25, custom)"
   width="12096.301"
   height="15805.878"
   xmlns:inkscape="http://www.inkscape.org/namespaces/inkscape"
   xmlns:sodipodi="http://sodipodi.sourceforge.net/DTD/sodipodi-0.dtd"
   xmlns="http://www.w3.org/2000/svg"
   xmlns:svg="http://www.w3.org/2000/svg"><defs
   id="defs1" /><sodipodi:namedview
   id="namedview1"
   pagecolor="#ffffff"
   bordercolor="#999999"
   borderopacity="1"
   inkscape:showpageshadow="2"
   inkscape:pageopacity="0"
   inkscape:pagecheckerboard="0"
   inkscape:deskcolor="#d1d1d1"
   inkscape:zoom="1.5367503"
   inkscape:cx="138.92953"
   inkscape:cy="90.125246"
   inkscape:window-width="1366"
   inkscape:window-height="745"
   inkscape:window-x="-8"
   inkscape:window-y="-8"
   inkscape:window-maximized="1"
   inkscape:current-layer="svg1"><inkscape:page
     x="0.00049717596"
     y="1.3527117e-05"
     width="12096.302"
     height="15805.878"
     id="page3"
     margin="0"
     bleed="0" /></sodipodi:namedview>
  <path
   d="m -14022.823,-343.4175 c -2.019,-1.23093 -3.972,-3.44084 -4.341,-4.9109 -0.369,-1.47011 -0.511,-19.8468 -0.316,-40.83711 l 0.356,-38.16416 4.829,-9.74235 c 5.743,-11.58543 14.568,-20.48232 25.608,-25.81767 31.301,-15.12775 68.968,2.21465 77.711,35.77949 2.205,8.46727 2.58,74.88977 0.449,79.56738 -2.803,6.15169 -4.696,6.37219 -54.677,6.36758 -43.669,-0.004 -46.131,-0.11535 -49.619,-2.24226 z m 57.27,-26.33098 c 14.438,-2.66325 27.024,-12.41442 33.295,-25.79697 2.659,-5.67406 3.07,-7.99944 3.07,-17.36965 0,-9.37018 -0.411,-11.69557 -3.07,-17.36961 -6.341,-13.53194 -18.908,-23.17863 -33.685,-25.85822 -18.267,-3.31245 -37.46,6.82654 -46.377,24.49934 -3.149,6.24152 -3.416,7.70647 -3.416,18.72849 0,11.02204 0.267,12.48703 3.416,18.72855 6.214,12.31572 18.551,21.92792 31.369,24.44048 7.117,1.39522 7.821,1.39509 15.398,-0.002 z m -4.753,-33.1099 -8.419,-8.16403 v -14.61187 c 0,-13.09348 0.237,-14.84855 2.278,-16.88946 2.694,-2.69466 4.471,-2.85247 7.469,-0.6634 1.929,1.40881 2.26,3.32867 2.6,15.08903 l 0.389,13.47484 5.589,5.91049 c 3.075,3.2508 5.59,6.70988 5.59,7.68687 0,2.04036 -3.942,6.33156 -5.816,6.33156 -0.693,0 -5.049,-3.67382 -9.679,-8.16403 z"
   id="path1" />
<path
   id="path3"
   style="fill:#000000;fill-opacity:1;fill-rule:evenodd"
   d="m -13886.767,-464.7198 c -7.647,0 -13.804,6.15551 -13.804,13.80273 v 96.62891 c 0,7.64722 6.157,13.80274 13.804,13.80274 h 81.903 c 7.647,0 13.804,-6.15552 13.804,-13.80274 v -96.62891 c 0,-7.64722 -6.157,-13.80273 -13.804,-13.80273 z m 2.059,11.73046 h 33.83 v 45.78516 h -39.352 v -40.26367 c 0,-3.05889 2.463,-5.52149 5.522,-5.52149 z m 43.033,0 h 34.752 c 3.059,0 5.522,2.4626 5.522,5.52149 v 40.26367 h -40.274 z m 15.166,5.85938 c 0,0 -6.23,2.43258 -7.385,4.43164 -1.154,1.99906 -0.469,4.55483 1.53,5.70898 1.999,1.15417 4.555,0.46977 5.709,-1.52929 1.154,-1.99906 0.146,-8.61133 0.146,-8.61133 z m -38.554,2.43945 c 0,0 -6.231,2.43258 -7.385,4.43164 -1.154,1.99906 -0.47,4.55483 1.529,5.70899 1.999,1.15416 4.555,0.46976 5.709,-1.5293 1.154,-1.99906 0.147,-8.61133 0.147,-8.61133 z m 59.541,8.45899 c 0,0 -6.231,2.43258 -7.385,4.43164 -1.154,1.99906 -0.47,4.55678 1.529,5.71094 1.999,1.15416 4.555,0.46781 5.709,-1.53125 1.154,-1.99907 0.147,-8.61133 0.147,-8.61133 z m -20.499,11.22461 c 0,0 -6.23,2.43453 -7.384,4.43359 -1.154,1.99906 -0.47,4.55483 1.529,5.70898 1.999,1.15417 4.555,0.46977 5.709,-1.52929 1.154,-1.99906 0.146,-8.61328 0.146,-8.61328 z m -43.273,2.76562 c 0,0 -6.231,2.43454 -7.385,4.4336 -1.154,1.99906 -0.469,4.55482 1.53,5.70898 1.999,1.15416 4.554,0.46977 5.709,-1.5293 1.154,-1.99906 0.146,-8.61328 0.146,-8.61328 z m -20.936,24.24024 h 39.352 v 45.78516 h -33.83 c -3.059,0 -5.522,-2.4626 -5.522,-5.52149 z m 48.555,0 h 40.274 v 40.26367 c 0,3.05889 -2.463,5.52149 -5.522,5.52149 h -34.752 z m 33.875,5.69336 c 0,0 -6.23,2.43257 -7.385,4.43164 -1.154,1.99905 -0.469,4.55678 1.53,5.71093 1.999,1.15416 4.555,0.46782 5.709,-1.53125 1.154,-1.99905 0.146,-8.61132 0.146,-8.61132 z m -67.676,5.85742 c 0,0 -6.23,2.43258 -7.384,4.43164 -1.155,1.99907 -0.47,4.55482 1.529,5.70899 1.999,1.15416 4.555,0.46977 5.709,-1.5293 1.154,-1.99907 0.146,-8.61133 0.146,-8.61133 z m 17.895,3.57812 c 0,0 -6.231,2.43258 -7.385,4.43164 -1.154,1.99907 -0.47,4.55679 1.529,5.71094 2,1.15417 4.557,0.46782 5.711,-1.53125 1.155,-1.99906 0.145,-8.61133 0.145,-8.61133 z m 30.584,7.15821 c 0,0 -6.231,2.43258 -7.385,4.43164 -1.154,1.99907 -0.47,4.55678 1.529,5.71094 2,1.15417 4.557,0.46782 5.711,-1.53125 1.155,-1.99907 0.145,-8.61133 0.145,-8.61133 z m -39.369,7.1582 c 0,0 -6.231,2.43259 -7.385,4.43164 -1.154,1.99906 -0.468,4.55483 1.531,5.70899 1.999,1.15416 4.555,0.46977 5.709,-1.5293 1.154,-1.99906 0.145,-8.61133 0.145,-8.61133 z"
   inkscape:export-filename="..\Nature\windowrain2.svg"
   inkscape:export-xdpi="199.9"
   inkscape:export-ydpi="199.9" /></svg>
