<svg xmlns="http://www.w3.org/2000/svg" xml:space="preserve" viewBox="0 0 135.46436 135.33437">
  <path d="m14.948188 0-1.07642.57619c-1.561189.83566-2.928143 2.47572-3.40651 4.08657-.259924.87526-.411861 2.42449-.411861 4.20026v2.81327L5.425772 22.37485.798148 33.07291l-.0031 4.119132c-.0027 4.37425.254144 5.81898 1.454692 8.18399 1.685065 3.31951 5.323453 5.91456 9.266101 6.6089h.000516c2.831058.49859 6.795254-.367 9.147762-1.99729.586336-.40633 1.646881-1.37435 2.356962-2.15129l1.291395-1.41283 1.810737 1.81074c2.08724 2.08724 3.85989 3.05268 6.69107 3.6437 4.36935.91214 8.72583-.56519 11.89695-4.03489l1.32601-1.45108 1.32602 1.45108c2.67836 2.93055 5.57309 4.21059 9.5219 4.21059 3.9488 0 6.84354-1.28004 9.5219-4.21059l1.32602-1.45108 1.32601 1.45108c2.67837 2.93055 5.5731 4.21059 9.5219 4.21059 3.9488 0 6.84354-1.28004 9.5219-4.21059l1.32602-1.45108 1.32602 1.45108c3.17111 3.4697 7.5276 4.94703 11.89694 4.03489 2.87846-.60089 4.63001-1.55423 6.69779-3.64525l1.79679-1.81695 1.31516 1.43919c2.62505 2.87222 5.56618 4.18983 9.37876 4.20233 4.62804.0152 8.2534-1.91846 10.75438-5.73608 1.68681-2.57484 2.07833-4.29372 2.07533-9.10901l-.003-4.139282-4.62762-10.69806-4.62762-10.69856V8.86302c0-1.77577-.15194-3.325-.41187-4.20026-.47836-1.61085-1.84531-3.25091-3.40651-4.08657L120.517043 0h-52.78437Zm114.024565 59.856292c-2.88531-.11423-5.69139 1.69611-6.63681 4.69532-.40247 1.27683-.37431 2.03949.53382 14.56758.52708 7.27116 1.01779 13.66313 1.09037 14.20431l.13178.98391-15.28744.07442-15.28744.07441-1.76578.86972c-3.12272 1.53766-4.96921 4.40557-4.96921 7.71891 0 1.30628.11523 1.69457.7152 2.4076.39339.46751 1.08328 1.00335 1.53273 1.19114l.817.34158-1.23713 12.49743c-.82816 8.3655404-1.16255 12.7576704-1.01131 13.2849804.28806 1.0044.95568 1.7517 1.96164 2.19573 1.10262.48669 3.70104.46028 4.77335-.04857.4864-.23082 1.08166-.72113 1.32292-1.08934.24946-.38074 1.57201-6.1048 3.06648-13.2720604 1.44531-6.9316 2.69185-12.81173 2.76985-13.06639.13148-.42941.81114-.46302 9.36222-.46302h9.22114l.26459 1.25677c.14566.69121 1.35667 6.4956 2.69079 12.89844 1.3341 6.4028304 2.62766 11.9988604 2.87476 12.4354204.24709.43656.86196 1.00182 1.36632 1.25625 1.12779.56894 3.6236.61122 4.88859.08268 1.12716-.47095 1.97925-1.81274 1.98025-3.11867.00095-.95062-1.94972-21.3923004-2.26033-23.6864104-.13108-.96812-.0849-1.12448.33124-1.12448.87017 0 2.27661-.94838 2.76986-1.8681.45559-.84955.48314-2.01439.48214-20.22047-.00096-12.49184-.0985-19.66694-.27543-20.30419-.41214-1.48398-1.82619-3.15886-3.37034-3.992-.91346-.49287-1.88405-.74483-2.84582-.7829zm-122.48193.00051c-.961646.0381-1.931871.28981-2.844787.78239-1.544164.83314-2.958189 2.508-3.370337 3.992-.17687.63684-.274486 7.75216-.275436 20.1104-.0016 20.71261-.03104 20.27367 1.434021 21.42608.388269.30542 1.06348.63377 1.500167.72967.760418.16702.78727.22068.641822 1.27486-.316319 2.29268-2.253833 22.5793104-2.253093 23.5902904.00099 1.34661.818852 2.70015 1.921847 3.17965 1.219194.52999 3.82969.49286 4.946984-.07079.504379-.25443 1.118112-.82021 1.363742-1.25677.245618-.43656 1.538298-6.03202 2.872692-12.4349004 1.334395-6.4029 2.546536-12.20774 2.693376-12.89896l.26665-1.25625h9.220626c8.551446 0 9.230966.0331 9.361706.4625.0775.25466 1.32299 6.13365 2.76779 13.0638 1.5016 7.2026204 2.81575 12.8883504 3.06751 13.2725804.6264.95601 1.97626 1.51102 3.67316 1.51102 2.40173 0 3.92148-.86976 4.37234-2.50269.15373-.55676-.17057-4.86334-1.00407-13.3340704l-1.23093-12.5119.80512-.34365c1.4831-.63265 2.09326-1.57148 2.20658-3.39669.20567-3.31253-1.81519-6.53654-5.02605-8.01915l-1.66708-.76998-15.28124-.07389-15.281754-.07442.134359-.98443c.0739-.54118.563905-6.93496 1.088822-14.20896.902937-12.51227.931553-13.29813.531234-14.5681-.944239-2.99545-3.750832-4.80393-6.635771-4.68964zm61.24174 16.87236c-35.62331 0-35.6812.001-36.4107.5457-.42158.31476-.74584.57607-.99632.8568-.75143.8422-.83882 1.86059-.89762 5.03225-.0337 1.81545-.042 2.80324.0284 3.45767.0352.32721.0904.57096.17157.79323.0812.22228.18868.42315.32918.66404.77157 1.32291 1.41751 1.79322 3.67471 1.94562.7524.0508 19.79208.06615 19.79208.06615l-2.0789-.0124s2.12218.0124 3.68763.0124h6.61458l-.003 6.15156c-.003 5.83434-.39913 11.38637-1.05316 14.75052-.52906 2.72127-1.06092 8.05845-1.06092 10.64793v2.58124h-.91571c-1.34245 0-3.59942.92838-4.84156 1.99161-.30138.25796-.66294.67103-1.00562 1.1322304-.34269.46119-.66651.97051-.89194 1.42162-.34663.69367-.58259 1.38694-.7121 2.04845-.25901 1.32302-.0925 2.5193.46509 3.3414.2788.41104.65551.72864 1.12551.92139h.00052c.30731.12599 7.20614.20573 15.33084.17673l14.77223-.05322.77204-.86403c.66558-.74504.77205-1.07628.77205-2.40502 0-.73407-.1616-1.53442-.44597-2.31821-.0948-.26126-.20341-.52056-.32401-.77515-.48241-1.01834-1.15968-1.9587704-1.93942-2.6261904-.30702-.26281-.67905-.51849-1.08468-.75448-.40564-.23599-.84499-.45237-1.28675-.63562-.88351-.3665-1.77669-.60151-2.42982-.60151h-.87644l-.16123-4.0349c-.15074-3.77469-.31468-5.15683-1.39939-11.77396-.28719-1.75192-.46764-5.10539-.56224-10.45104l-.13953-7.87135h14.65544c8.25227 0 12.22337.01806 14.28336-.22428.51499-.06058.91056-.13709 1.2237-.23461.31315-.09752.54379-.21598.72915-.35915.18536-.14317.32518-.31097.45682-.5085.13165-.19753.25521-.42462.40721-.68523.1405-.24089.24797-.44176.32918-.66404.0812-.22227.13634-.46602.17157-.79323.0705-.65443.0621-1.64222.0284-3.45767-.0588-3.17166-.14581-4.19005-.8971-5.03225-.25043-.28073-.57474-.54204-.99632-.8568-.7295-.54464-.7874-.5457-36.4107-.5457z"/>
</svg>
