<svg xmlns="http://www.w3.org/2000/svg" xml:space="preserve" viewBox="0 0 135.34071 131.21976">
  <path d="M2.528262 130.889029c-1.0233-.78167-.83733-1.45847 2.05021-7.46145 1.53652-3.1943 2.98753-6.02203 3.22448-6.28386.41235-.45565 2.97812-.47604 59.880044-.47604 56.95884 0 59.46733.02 59.88116.47728.23757.2625 1.69154 3.12396 3.23105 6.35881 2.83735 5.96188 2.96744 6.42146 2.07135 7.31755-.3527.35269-7.83292.39844-65.15189.39844-51.395454 0-64.842754-.0682-65.186404-.33073zm45.84015-19.64531c0-2.95451.0564-3.36374.52917-3.83646.51894-.51894.88194-.52917 18.785414-.52917 17.90347 0 18.26648.0102 18.78542.52917.47272.47272.52916.88195.52916 3.83646v3.30729H48.368412Zm-29.19545-.35156c-.36199-.4-.43788-1.10366-.43788-4.06004 0-4.38503.0431-4.45194 2.86511-4.45194h1.89739v-5.55625h-6.55399l-1.87008 4.58062c-1.02854 2.51934-1.98101 4.87083-2.11659 5.22552-.55016 1.4392-1.01545 1.59419-4.54279 1.51323-3.18241-.073-3.26012-.0892-3.78094-.78761l-.53175-.71303.95496-3.38801c2.59405-9.20326 3.92911-16.08507 4.30719-22.20215.12548-2.03028.0919-2.99462-.10868-3.11857-.15968-.0987-1.03876.0147-1.95351.25208-4.63092 1.20147-7.75148.0819-7.24826-2.60046.21314-1.13613 2.62783-4.40169 4.54459-6.146 1.19105-1.08387 1.5209-1.57871 1.82548-2.73858.448-1.70599 1.03835-2.42079 1.99932-2.42079.86132 0 6.55805 3.57077 8.67651 5.43853 1.77453 1.56452 3.31636 3.90603 4.9166 7.46657.89359 1.98825 1.21762 3.04244 1.21835 3.96375.001 1.58125.75896 2.87723 1.98068 3.3877.59949.25048 1.87507.38095 3.72453.38095 4.23711 0 5.32419-.70272 5.64055-3.64623.15975-1.4864.17834-1.51465 1.05188-1.59825 1.67115-.15992 4.53824.51442 6.62249 1.55762 3.48583 1.74471 6.0684 4.84978 7.31448 8.79431.67592 2.13966.66756 2.77658-.0458 3.48994-.49702.49702-2.04639.52079-2.44744.0376-.16473-.19849-.54886-1.12042-.8536-2.04873-.30475-.92831-.79289-2.15592-1.08476-2.72802-.55519-1.08828-3.30841-4.02115-3.54899-3.78057-.0764.0764.22629 1.27927.67273 2.67296 1.00584 3.14003 1.99604 8.42362 2.52799 13.48908.57927 5.51612.55427 6.09384-.29246 6.75988-.5958.46866-1.06799.54837-3.24842.54837-1.80981 0-2.71174-.11239-3.1034-.38672-.37505-.26269-1.17827-2.12949-2.5045-5.82083l-1.95238-5.43411h-6.48582v5.55625h1.94337c2.77509 0 2.81913.071 2.81913 4.54389 0 3.12852-.0606 3.63099-.48386 4.01406-.41867.37889-1.25074.43788-6.1767.43788-5.17912 0-5.73236-.0437-6.13073-.48385zm85.021464-.23906c-.52376-.66585-.56182-.97696-.48222-3.94182.11094-4.13235.25034-4.3311 3.03784-4.3311h1.94337v-5.55625h-6.55871l-2.17542 5.43114c-1.34023 3.346-2.36007 5.52996-2.65638 5.68854-.64937.34753-6.23819.32867-6.8958-.0233-1.07011-.5727-1.06348-1.3173.0462-5.19106 2.22579-7.76978 3.83069-16.2176 4.12427-21.70919.19639-3.67358.35254-3.46533-2.11788-2.82437-2.19157.56862-4.84023.58421-5.8879.0347-1.6142-.84671-1.79155-2.87232-.39495-4.511.39386-.46213 1.15539-1.45018 1.69229-2.19566.53689-.74548 1.5116-1.79416 2.16602-2.33041.964-.78992 1.27002-1.26085 1.61224-2.48104.44949-1.60263 1.14686-2.43209 2.0448-2.43209 1.26732 0 7.66575 4.29646 9.67908 6.49936 2.33626 2.55624 5.05671 8.14463 5.05851 10.39127.001 1.53893.68811 2.71761 1.92599 3.30502 1.22408.58087 6.12827.62085 7.46843.0609 1.14756-.47948 1.97818-1.81491 1.98474-3.19093.008-1.69887.19647-1.82641 2.39575-1.62201 6.41853.59654 11.42593 5.04011 12.93919 11.48226.28388 1.20848.27018 1.48083-.10309 2.05052-.33408.50986-.65685.65694-1.44167.65694-1.27603 0-1.62012-.40756-2.36463-2.80081-.68621-2.20583-1.80193-3.98819-3.2983-5.26903-.59291-.5075-1.11215-.8886-1.15388-.84687-.0417.0417.22705 1.02326.59728 2.18119 1.36222 4.26039 2.60553 11.6538 2.91243 17.31885.20571 3.79709.19509 3.80914-3.46221 3.92696-2.16635.0698-2.94742-.0001-3.41339-.30541-.45157-.29588-1.09413-1.77272-2.5432-5.84519l-1.93897-5.44927h-6.53671v5.55625h1.94337c2.83478 0 2.95142.17777 2.95142 4.49791 0 4.80666.4646 4.49792-6.76867 4.49792h-5.76063zm-48.946844-9.29025c0-2.95646.0629-3.45554.48385-3.83646.43463-.39333 1.65523-.43788 11.997534-.43788 10.81825 0 11.54013.0292 11.95157.48386.35895.39664.43788 1.08812.43788 3.83645v3.35261H55.247582Zm5.820834-25.441v-18.78542h13.22916v37.57083h-13.22916zm-35.447844 6.16565c-.35925-.45671-.53281-1.00427-.48222-1.52136.071-.72605.17974-.81617 1.07382-.89011l.99479-.0823-.0687-12.35314-.0687-12.353153-8.33438-.13389c-7.72957-.12417-8.43458-.1749-9.71528-.69909-3.59022-1.46945-6.12378-4.48678-6.92056-8.24202-.16362-.77115-.29749-2.765448-.29749-4.431768v-3.02969h43.39167v12.909768l-.97966.86015c-.53881.47308-1.7592 1.22955-2.71198 1.68105-1.67596.7942-1.87867.82521-6.23024.9532l-4.49791.13229-.0688 12.369273-.0688 12.36927h.92865c.91934 0 .92866.0115.92866 1.14962 0 1.77933-.44215 2.02538-3.63965 2.02538-2.58692 0-2.6898-.0227-3.23319-.71351zm85.362804.22966c-.26014-.28745-.43788-.93184-.43788-1.5875 0-1.04989.0387-1.10365.79375-1.10365h.79375V54.783036l-8.26823-.0801-8.26823-.0801-1.73232-.82091c-.95278-.4515-2.17317-1.20797-2.71198-1.68105l-.97966-.86015V38.350958h43.39167v3.02969c0 3.478908-.31804 5.283808-1.26107 7.156768-.94516 1.87717-1.78743 2.90478-3.2773 3.99844-2.38263 1.74901-3.52618 2.04381-8.55851 2.20632l-4.49791.14524-.0688 12.369273-.0688 12.36927h.92866c.91934 0 .92866.0115.92866 1.14962 0 1.77666-.44429 2.02538-3.61785 2.02538-2.23139 0-2.71933-.0764-3.08802-.48385zM52.502262 54.322146c-1.44082-.44245-3.1031-1.40283-4.2-2.42651l-.7276-.67905V38.351008h40.216664v12.865578l-.7276.67905c-1.1345 1.05878-2.76432 1.98226-4.30691 2.44036-2.0427.60662-28.273154.59461-30.254554-.0139zM3.085172 35.935708c-.39075-.14319-.84714-.60978-1.03127-1.0543-.28678-.692331-.26411-.886096.17196-1.470161.33781-.452462 10.85457-6.000308 32.1198-16.943974C51.735312 7.518088 66.112036.13613 66.293936.062922c.26266-.105713.33073 3.602745.33073 18.019158v18.152268l-31.419274-.0209c-19.604-.013-31.68286-.11748-32.12022-.27775zm65.656154-17.82532c0-9.968177.0893-18.117849.19844-18.110383.10914.0075 14.48259 7.372294 31.94099 16.366284 21.62327 11.139598 31.90498 16.570282 32.25209 17.035199.44251.592683.46631.786893.18091 1.47592-.20449.49367-.634.89987-1.1369 1.07518-.55406.19315-10.65615.28176-32.12188.28176h-31.31365z"/>
</svg>
