<svg xmlns="http://www.w3.org/2000/svg" xml:space="preserve" viewBox="0 0 101.60348 118.5089">
  <path d="M9.736773 118.118045c-2.18389-.52939-3.90192-1.48202-5.73732-3.18128-1.81856-1.68366-3.28778-4.3227-3.72785-6.69601-.36214-1.95301-.36214-96.002882 0-97.955894.44007-2.373309 1.90929-5.012349 3.72785-6.696007.88522-.819564 2.19232-1.785455 2.90467-2.146426C9.851133-.050938 8.173713.0043 50.705085.000055c25.56564-.0026 39.68338.08997 40.61239.266151 4.86809.923215 9.12852 5.180689 10.0256 10.018655.1698.915756.26286 18.459156.26035 49.080204-.004 51.76426.0639 49.29516-1.44237 52.26763-.36097.71234-1.32686 2.01944-2.14643 2.90467-1.68365 1.81855-4.3227 3.28777-6.696 3.72784-.91162.16904-15.5943.25632-40.74584.24222-32.585902-.0183-39.580202-.085-40.836012-.38938zm47.685152-12.9339c6.87456-1.4685 12.22043-4.38112 17.22303-9.38372 4.98031-4.98031 7.91952-10.37003 9.39235-17.22304.68259-3.17606.68606-10.11036.007-13.22916-2.97037-13.63461-12.99762-23.66131-26.62199-26.62052-3.11858-.67735-10.08193-.68394-13.16783-.0125-13.729562 2.98753-23.706782 12.96474-26.694312 26.6943-.67148 3.0859-.6649 10.04926.0125 13.16783 2.60103 11.97529 10.77283 21.33508 22.122612 25.33872 1.97446.6965 4.75587 1.3652 7.27604 1.74929 1.62731.24801 8.52372-.0695 10.45104-.48125zm-11.24479-8.19361c-5.40808-1.04993-9.95724-3.58047-13.831652-7.69406-3.77741-4.01059-6.08214-8.94427-6.7207-14.38678-.36942-3.14871-.58592-2.80749 2.56068-4.0359 5.63806-2.20107 12.860002-2.43459 18.515162-.5987.73073.23723 2.76974 1.06422 4.53114 1.83778 1.76141.77355 4.20219 1.66757 5.42396 1.98672 2.80589.73294 8.35615.98666 11.29253.51623 2.29668-.36795 5.77419-1.40148 7.2669-2.15975l.99218-.50402v1.02905c0 1.77563-.75718 5.46756-1.59781 7.79076-1.11065 3.06944-3.12795 6.23533-5.64131 8.8533-3.28682 3.42363-7.15206 5.72128-11.68649 6.94692-2.70436.73097-8.39105.94527-11.10459.41845zM31.920573 20.485004c1.38814-1.037176 1.82114-1.882539 1.82114-3.555527 0-1.672967-.43298-2.518309-1.8211-3.555527-.68925-.515013-1.13955-.550162-8.05345-.628634-4.70033-.05335-7.66995.0189-8.29101.201706-2.69083.792041-3.72653 4.460161-1.87922 6.655569 1.27269 1.512498 1.57274 1.557624 9.90561 1.489741 7.19945-.05865 7.62529-.08974 8.31803-.607328zm41.727932.316908c2.71849-1.135859 3.3812-4.699821 1.26704-6.813979-1.71623-1.716233-4.16685-1.716233-5.88308 0-3.27199 3.271983.33831 8.601328 4.61604 6.813979zm12.7 0c2.71849-1.135859 3.3812-4.699821 1.26704-6.813979-1.71623-1.716233-4.16685-1.716233-5.88308 0-3.27199 3.271983.33831 8.601328 4.61604 6.813979z"/>
</svg>
