<svg xmlns="http://www.w3.org/2000/svg" xml:space="preserve" viewBox="0 0 139.12245 135.82011">
  <path fill-rule="evenodd" d="M76.41501.0093c-8.38414-.31673-21.86615 7.48546-21.90855 18.15487-.0576 14.4642 23.43335 24.65803 26.45488 15.17476 1.77192-5.56146-7.91409-4.64336-6.97384-16.61146.79319-10.09632 9.84264-7.37774 8.81826-12.3014C82.19722 1.50091 79.69574.13323 76.41501.0093zM14.55365 40.59097c-.64674.005-1.21546.0524-1.6768.12957-3.69113.61518-5.12559 4.716179-5.12559 9.63762 0 4.921407-1.23124 21.121702-3.48694 31.374659-2.25568 10.25295-1.43256 13.943867.82313 18.250128 2.2557 4.306232 9.84347 5.331366 9.84347 5.331366h2.25214V80.391404c0-1.767223 1.42253-3.18967 3.18967-3.18967 1.76729 0 3.18974 1.422447 3.18974 3.18967v24.922909h3.26208c1.64051 0 7.79255-4.510577 10.86852-8.406716 3.07587-3.896119-2.87198-35.065599-6.76804-45.318534C27.51597 42.61771 19.08141 40.55453 14.55365 40.59097zm9.00882 64.723343h-6.37941v15.742586H7.38164c-4.08971 0-7.38165 3.291879-7.38165 7.381605 0 4.089719 3.29194 7.3815976 7.38165 7.3815976h124.35537c4.08971 0 7.38543-3.2918786 7.38543-7.3815976 0-4.089726-3.29572-7.381605-7.38543-7.381605h-8.2657v-15.742586h-6.3794v15.742586H23.56247zm93.52944 0V80.391404c0-1.767246 1.42246-3.18967 3.18974-3.18967 1.76721 0 3.18966 1.422424 3.18966 3.18967v24.922909h2.25215s7.58777-1.025089 9.84346-5.331366c2.2557-4.306297 3.07875-7.997075.82314-18.250128-2.25569-10.25306-3.48693-26.4532-3.48693-31.374659 0-4.921483-1.43447-9.02244-5.12559-9.63762-.46164-.0772-1.03006-.12432-1.67681-.12957-4.52782-.0361-12.96224 2.02663-16.37137 10.998093-3.89606 10.253039-9.84398 41.422379-6.76804 45.318534 3.07595 3.896176 9.22801 8.406716 10.86851 8.406716zM69.57456 50.297181a3.5581623 3.5581623 0 0 0-3.55551 3.559328v9.938682c.21977-.317912 1.48749-2.037526 3.37638-2.33605l1.08227-1.871122 1.37954 2.385583c.44541.257073.90396.627933 1.3757 1.10896v-9.027888a3.5581623 3.5581623 0 0 0-.35442-1.486228 3.5581623 3.5581623 0 0 0-3.30396-2.271265zm3.65838 14.062012v34.24804c.68066.698875 1.66213 1.667801 3.48692 3.845137 2.36609 2.823168 5.01557 6.100513 6.19261 9.778619a3.5581623 3.5581623 0 0 1 .16393 1.059419h18.40636zm-7.21389 2.953401-26.54632 45.977814h16.73722a3.5581623 3.5581623 0 0 1 .14477-1.261388c1.17702-3.678145 3.82658-6.970725 6.19267-9.79387 1.81677-2.167751 2.7851-3.113249 3.47166-3.818458zm3.52121 37.727338c-.48227.540695-1.00189 1.138849-1.53579 1.775853-1.77835 2.121858-3.62748 4.792678-4.47775 6.474623h12.09561c-.88883-1.68935-2.65457-4.233764-4.36339-6.272646-.60911-.72638-1.18204-1.380442-1.71868-1.97783z" paint-order="stroke fill markers"/>
</svg>
