<svg xmlns="http://www.w3.org/2000/svg" xml:space="preserve" viewBox="0 0 115.88762 112.75456">
  <path d="M104.73352388 8.4071225c-1.22461727-.36746772-5.48679378-.41282758-12.0802824 11.41771146-.41758144.74919704-.84523186 1.5436219-1.2844038 2.38677394-4.69547215 9.014398-8.65469495 17.98653936-13.35014069 27.00093736-4.9802885 9.52642965-11.41066978 20.6406856-18.62408643 28.9143379-3.20766533 3.67913389-6.40025031 6.59837453-9.49416935 8.57605137-1.46205007.93456504-2.84717325 1.62341432-4.1529959 2.09243002-1.26460593.45415986-2.46845802.70750163-3.63176685.77742317-3.446795.1716676-6.29327828-.12379876-8.65300468-.71189236-2.26841243-.56541367-4.18152904-1.42424689-5.8314561-2.51423714-1.62241404-1.07176708-3.0841901-2.4295588-4.40287132-4.0966163-1.30321463-1.64751382-2.44900016-3.57580321-3.4417209-5.759019-1.98309097-4.36128153-3.17073368-9.3257436-3.90162832-14.14052474-.35840565-2.3609908-.59548521-4.60554473-.77155345-6.61745605-.17665257-2.01864597-.2907455-3.7814742-.4062712-5.225793-.12082758-.91538448-.11231023-2.33725444.07837287-4.07238476.19319208-1.75784326.56393138-3.76949048 1.12805424-5.90665312 1.18600527-4.49310245 3.14197606-9.23756589 5.87691502-13.46854511 2.62284991-4.05756193 5.80598988-7.40953699 9.48080237-9.81588764.48062308-.3146139.97502248-.61638574 1.48339959-.90356584 2.2061367-1.24620777 4.68996558-2.22811346 7.48096391-2.81914522 2.6926295-.57020055 5.71921851-.78686488 9.12138984-.49575623 2.79893136.25684114 5.2156646 1.19738154 7.38168061 2.6786749 2.15947944 1.47677057 4.18416679 3.57266696 6.06243157 6.28346352 1.86351128 2.68950316 3.52693406 5.90434221 4.99366868 9.52949985 1.4587785 3.6054819 2.68460734 7.52148407 3.70892483 11.56395906 2.0684923 8.16332283 3.24406546 16.55562384 3.91338755 23.41820143.34156241 3.50205215.54931653 6.57962315.68478868 9.08260286.07074686 1.30718278.11752628 2.36977225.16255602 3.39132655.02112832.482452.04361017.98784803.06599299 1.41695102.02244884.43174402.05087303.90491937.09289858 1.34564293.11462114 1.53857091.36380657 3.21133967.74897916 4.9619861.40444888 1.83826294.9621342 3.77609308 1.67943739 5.72627009 1.60322357 4.35877255 3.97731392 8.71252712 7.22123743 12.30586023 1.91373065 2.11986383 4.07796396 3.91646436 6.45542824 5.27884488 2.92125443 1.67399024 5.92520643 2.55253223 8.7391356 2.71739915 1.39093677.08154212 2.68290056-.0132052 3.8416899-.24363594 2.16060189-.42656099 3.96611592-1.39417205 5.35527-2.54698604 3.83188504-3.17997732 4.72468864-7.93454274 5.42304567-9.42339607-1.94921963-.31659468-5.50722883-2.47155134-7.66083195-4.86126344-.77257025-.8572486-1.24706611-1.59360358-1.61407165-2.25676875-.1891645-.34191565-.3245178-.63464193-.4471941-.92528839-.2594822-.61457003-.36707156-.9639136-.76646285-1.54451325-.30669078-.44577455-.76613271-.987749-1.37056775-1.77022314-1.12637058-1.45821727-2.33603296-3.24537608-3.68401982-5.82095138-.5731057-1.09497521-1.07708217-2.15300888-1.5458998-3.18496228-.43620078-.96011711-.80743198-1.83723953-1.08890082-2.40357757-.0528208-.0528208-.13106162-.25287958-.21590503-.52761378-.08517354-.27598869-.18025099-.63602847-.28226116-1.0586279-.20203956-.83757285-.43207416-1.924757-.68937749-3.19549343-.50641943-2.50083387-1.12227696-5.73118903-1.89547446-9.4356769-1.50328001-7.20254548-3.6384949-16.37827801-6.79714582-25.41212067-1.57171596-4.49514926-3.41460072-9.00815855-5.58976793-13.27106134-2.18037006-4.27313682-4.72484381-8.35473221-7.71292646-11.93419986-3.02345938-3.62185634-6.54234817-6.7782954-10.63627392-9.07032202C59.68580503 1.48525356 55.04058858.1382571 49.99720232.01254359c-4.63014602-.1033307-8.8531526.43577161-12.6907324 1.4527371-3.97284396 1.0527846-7.49463459 2.60736683-10.60716305 4.4510439-.71539173.42375487-1.40909722.86272875-2.08174042 1.31437961-5.14438623 3.45424934-9.44186354 7.9354671-12.96402722 12.99893517-3.65941193 5.26075377-6.3773459 11.00448773-8.25408878 16.4326174-.89771263 2.59647254-1.60181722 5.11932607-2.1113762 7.44908657-.4941749 2.2594428-.83193752 4.45992438-.94558148 6.39587278-.11462114 1.3884608-.24393306 3.35636579-.30530423 5.62762725-.0614372 2.2736714-.05731057 4.91213647.09656303 7.76261103.30652571 5.67826918 1.21660832 12.4076393 3.52718165 18.93949264 1.17862686 3.33193617 2.74076246 6.66796594 4.81456985 9.81090268 2.11790947 3.20975505 4.75546007 6.19558291 8.01175025 8.73982887 3.34642887 2.6146627 7.21363123 4.65839855 11.58930643 6.02375024 4.50453816 1.40559454 9.39659282 2.04598074 14.62166943 1.9625899 3.29738476-.06074392 6.44660056-.64880451 9.4067311-1.61030816 3.0217262-.98150954 5.8402838-2.3495683 8.44169837-3.9422145 5.38201712-3.29502764 10.10687413-7.71873676 14.1444962-12.33610014 9.00999077-10.30368774 16.12726366-23.33906927 20.91494112-33.59637374 5.9258997-12.69584281 9.48714417-23.60442777 11.04558891-29.96949943.23637309-.96546521.4410867-1.88685807.61681491-2.7640135 2.77665749-13.85958411-1.31018697-16.38095206-2.53480424-16.74841978z" paint-order="stroke fill markers"/>
</svg>
