<svg xmlns="http://www.w3.org/2000/svg" xml:space="preserve" viewBox="0 0 52.279877 113.06406">
  <path d="M1.456843 111.624819C.6555678 110.823579-1e-7 90.140909-1e-7 65.663369v-44.50457l3.1992884-7.65701C9.1242137-.678578 31.2336781-4.688531 42.9266551 6.296471l5.149907 4.838068v8.36025c0 9.03566-5.844155 17.03207-12.565452 17.19306-2.410181.0577-1.092197 1.54735 3.564245 4.02846 16.912887 9.01172 17.742998 31.92355 1.541227 42.53932-6.392386 4.18846-23.2490185 4.79883-27.0677412.98011l-2.6223484-2.62233v12.27746c0 6.75259-.59691601 13.83299-1.32646385 15.73415-1.36312645 3.55234-5.55996945 4.58298-8.14318565 1.9998zm30.1320571-32.68007c4.443803-1.70525 9.942051-12.11796 9.899542-18.74801-.05975-9.32691-5.042045-15.87765-12.96353-17.04459-9.7895915-1.44214-11.2287489-6.19086-2.410726-7.95446 3.752152-.75043 8.261854-3.42002 10.02164-5.93243 10.852552-15.49418-9.026084-32.320968-20.6801298-17.50524l-4.5292038 5.75797v29.93525c0 16.46439.6555871 30.59084 1.4568622 31.39212 1.8358545 1.83584 14.5094984 1.90142 19.2055454.0995z"/>
</svg>
