<svg xmlns="http://www.w3.org/2000/svg" xml:space="preserve" viewBox="0 0 74.995552 110.20846">
  <path d="M71.0506929 13.155397c.215378-.665721-.08088-2.956221-5.565109-6.139907-2.24448-1.30296-5.374794-2.737697-9.271115-3.951419-1.715694-.534446-3.716966-1.076684-5.916358-1.556677-2.667828-.582208-5.796866-1.109164-9.051164-1.357471-2.830224-.215976-6.028394-.242544-9.176634.217427-2.826148.412915-6.114578 1.288887-9.09029 3.207-1.445253.931597-2.848931 2.130669-4.061193 3.660426-1.184992 1.495344-2.118947 3.221891-2.737154 5.156588-.641413 2.015644-.862887 4.090652-.689104 6.162052.166988 1.99047.691694 3.86082 1.406364 5.55121.696156 1.64658 1.587645 3.16647 2.558771 4.55734.955811 1.36895 2.030553 2.67239 3.158884 3.9111 2.191446 2.40584 4.75625 4.75247 7.386956 7.03374 2.595869 2.25109 5.335525 4.50773 8.037703 6.81174 2.666987 2.27403 5.261119 4.56232 7.644281 6.91557 2.359442 2.32983 4.428495 4.64209 6.111506 6.96734 1.670234 2.30758 2.885795 4.52602 3.649995 6.68508.750686 2.12087 1.086121 4.23685.95888 6.44298-.166077 2.89438-.614816 5.22086-1.199655 7.08903-.586945 1.87491-1.32396 3.33099-2.101667 4.47994-.788397 1.16474-1.676255 2.09893-2.623488 2.86734-.977149.79267-2.05489 1.44014-3.219311 1.97474-2.468406 1.13328-5.207339 1.69942-7.741637 1.96656-1.32699.13981-2.56873.19493-3.643891.21391-1.128143.0199-2.12394.00082-2.933018-.009.06968.006.145738.0337-.09065.002-.0898-.0112-.205928-.032-.345513-.0613-.131292-.0277-.280838-.0625-.447894-.10578-.709915-.18369-1.634495-.4923-2.697802-.95487-2.170596-.9443-4.606127-2.3925-6.805853-4.34722-2.248747-1.99826-4.161304-4.44165-5.422056-7.36311-1.323817-3.0676-2.009696-6.84482-1.47407-11.51433.562645-4.93605 2.29345-8.89725 4.39812-12.07573 2.433525-3.67512 5.481682-6.46643 8.143441-8.43876.712967-.52829 1.408234-1.00523 2.070785-1.43196 2.352346-1.51509 4.522027-2.56798 6.082043-3.23497 2.907885-1.2433 3.506747-1.23045 3.386008-1.19595l-3.551029-12.42861c-.120732.0345-1.150113.27929-4.872666 1.88005-1.980672.85173-4.749507 2.15084-7.816372 3.96948-.868372.51492-1.795141 1.09018-2.758215 1.72894-3.516647 2.33244-8.050582 5.85964-11.9798141 10.92197-3.4607202 4.45871-6.660886 10.37767-8.0480545 17.98637-1.27245206 6.96716-.8225399 13.50494 1.183626 19.46298 1.8897556 5.61234 5.0224067 10.29594 8.6701826 14.04165 3.508306 3.60251 7.456142 6.30094 11.14967 8.13872 1.825017.90807 3.639394 1.63155 5.362667 2.14776.418097.1253.83565.23973 1.251224.34232.440035.10858.888712.20739 1.342223.29258.829875.15579 1.750656.28047 2.709539.31802.718824.0368 2.02875.10299 3.550567.11433 1.462189.0112 3.272311-.0257 5.289107-.19855 3.716026-.31867 8.624577-1.139 13.584719-3.3369 2.404569-1.06549 4.871566-2.47671 7.230139-4.35106 2.319966-1.84365 4.499182-4.10749 6.387522-6.8643 1.862142-2.71857 3.386551-5.83642 4.498953-9.37494 1.100193-3.49967 1.782509-7.36214 2.018603-11.60645.273487-4.90839-.523201-9.50145-2.0474-13.73409-1.51337-4.20258-3.715588-7.97572-6.194141-11.34015-2.490788-3.38104-5.334248-6.44804-8.199157-9.21175-2.896182-2.79388-5.925189-5.38261-8.761591-7.72305-2.813217-2.32133-5.278835-4.27081-8.09205-6.59213-2.527709-2.09066-4.529165-3.84666-6.095356-5.44106-.784592-.79872-1.386654-1.48353-1.848444-2.07344-.473499-.60487-.737151-1.03002-.897443-1.30956-.157786-.27513-.174555-.3326-.202332-.2363-.03536.12252-.0631.29529-.153863.41576-.03443-.0271-.119728.0595-.188024.0759-.06801.0167-.109076-.0363.01822-.18801.292939-.34898 1.1729-.863111 2.724206-1.292293 1.663667-.460286 3.717451-.727315 5.952972-.850445 2.506351-.138135 5.131765-.09036 7.522728.0075 1.912908.07846 3.846091.197552 5.431826.290937 3.792761.223339 6.817738.326651 9.378183.23665 6.051253-.212723 7.50045-1.551063 7.759925-2.353078z" paint-order="stroke fill markers"/>
</svg>
