<svg xmlns="http://www.w3.org/2000/svg" xml:space="preserve" viewBox="0 0 88.933289 122.718">
  <path fill-rule="evenodd" d="M110.62644 51.849709a5.221933 5.221933 0 0 0-7.07893 2.104033S89.024157 79.991253 76.595472 101.91969c-.341088-1.00695-.517242-1.928147-.868793-2.935077-3.141786-8.9987-6.725966-17.73294-10.429516-24.961317-3.703549-7.228374-7.126353-12.92845-11.925387-16.356315-4.31732-3.083803-9.662993-3.61586-13.662994-1.952945-4.000019 1.662934-6.680013 4.693631-8.782556 7.690863-4.205068 5.994465-6.255431 12.752639-6.255431 12.752639a5.221933 5.221933 0 0 0 3.399691 6.557635 5.221933 5.221933 0 0 0 6.553855-3.39968s1.905947-5.714847 4.850228-9.912004c1.472159-2.098601 3.165284-3.597994 4.242066-4.045649 1.076801-.447655 1.513335-.671248 3.584799.808378 1.58975 1.135536 5.314458 6.00642 8.703222 12.62043 3.388763 6.614005 6.840288 14.992675 9.859126 23.639202 1.457402 4.17431 2.318151 8.1472 3.513007 12.3409-.75894 1.30161-.887303 1.64022-1.635625 2.9124-8.379424 14.24561-13.566873 25.82883-15.332641 35.12265-.882874 4.64691-.978087 8.83414.460865 12.65442 1.438932 3.82029 4.897922 6.91528 8.892082 7.98552 5.738962 1.53775 12.143141-.56807 16.496086-5.42819 4.352945-4.86012 7.045587-12.13886 7.709758-21.76938.516875-7.49464-1.937974-18.58666-5.239319-30.35929 15.034583-26.061287 32.002485-56.960012 32.002485-56.960012a5.221933 5.221933 0 0 0-2.10404-7.075159zM73.403537 129.39679c1.503627 7.08842 2.35749 13.05347 2.145595 16.12589-.552751 8.01472-2.829359 13.02433-5.069336 15.52528-2.239957 2.50094-4.050711 2.83022-6.013675 2.30423-1.305367-.34977-1.412919-.48247-1.824504-1.57519-.411586-1.09272-.642762-3.50373.0265-7.02603 1.104612-5.81399 5.059588-14.85141 10.735481-25.35418z" color="#000" paint-order="stroke fill markers" style="-inkscape-stroke:none" transform="translate(-24.426123 -51.219187)"/>
</svg>
