<svg xmlns="http://www.w3.org/2000/svg" xml:space="preserve" viewBox="0 0 77.385086 130.48503">
  <path fill-rule="evenodd" d="M38.6925428-.000006c-12.035808 0-21.907113 8.67105-28.4226928 20.522731C3.75422004 32.37438 0 48.02697 0 65.24252c0 17.21555 3.75422004 32.86814 10.26985 44.7198 6.5155798 11.85165 16.3868848 20.5227 28.4226928 20.5227s21.900902-8.67105 28.416536-20.5227c6.515575-11.85166 10.276006-27.50425 10.276006-44.7198s-3.760431-32.86814-10.276006-44.719795C60.5934448 8.671044 50.7283508-.000006 38.6925428-.000006Zm0 12.551672c5.868346 0 12.206637 4.524769 17.42414 14.015314 4.68404 8.52009 7.973511 20.54585 8.599378 34.0223H12.66284c.62587-13.47645 3.9168898-25.50221 8.6009328-34.0223 5.217562-9.490545 11.560424-14.015314 17.42877-14.015314zM12.62427 69.01266h52.1303898c-.519748 13.83412-3.851851 26.19961-8.637977 34.9054-5.217503 9.49052-11.555794 14.02147-17.42414 14.02147-5.868346 0-12.211208-4.53095-17.42877-14.02147-4.786123-8.70579-8.1197528-21.07128-8.6395028-34.9054z" paint-order="stroke fill markers"/>
</svg>
