<svg xmlns="http://www.w3.org/2000/svg" xml:space="preserve" viewBox="0 0 124.93443 118.61424">
  <g fill-rule="evenodd">
    <path fill="#99c1f1" d="M98.036918 87.137347c-.0384.35991-.0981.71222-.1633 1.06299.002.00006.11162.00051.11162.00051.086.002.15631-.068.154-.15399 0 0-.0136-.36349-.10232-.90951z" opacity=".66568" paint-order="stroke fill markers"/>
    <path d="M43.508259.000001c-3.379951 0-6.100594 2.720643-6.100594 6.100596v106.41304c0 3.37996 2.720643 6.1006 6.100594 6.1006 3.379953 0 6.101399-2.72064 6.101399-6.1006V6.100597c0-3.379953-2.721446-6.100596-6.101399-6.100596zm56.390579 17.257332c-3.0971 0-5.59036 2.493234-5.59036 5.590337v74.376957c0 3.0971 2.49326 5.59113 5.59036 5.59113 3.0971 0 5.59114-2.49403 5.59114-5.59113V22.84767c0-3.097103-2.49404-5.590337-5.59114-5.590337zm-36.94533.486295c-3.0971 0-5.59035 2.493234-5.59035 5.590338v74.376951c0 3.09709 2.49325 5.59035 5.59035 5.59035 3.09711 0 5.59034-2.49326 5.59034-5.59035V23.333966c0-3.097104-2.49323-5.590338-5.59034-5.590338zm-39.375989 7.777455c-3.097102 0-5.590338 2.49403-5.590338 5.591137v59.793027c0 3.0971 2.493236 5.59033 5.590338 5.59033 3.097117 0 5.590352-2.49323 5.590352-5.59033V31.11222c0-3.097107-2.493235-5.591137-5.590352-5.591137zm57.605909 15.070204c-3.09712 0-5.59035 2.49326-5.59035 5.59036v29.16787c0 3.0971 2.49323 5.59034 5.59035 5.59034 3.0971 0 5.59035-2.49324 5.59035-5.59034v-29.16787c0-3.0971-2.49325-5.59036-5.59035-5.59036zm-75.592273 7.53472c-3.097102 0-5.591156 2.49325-5.591156 5.59036v12.63956c0 3.0971 2.494054 5.59036 5.591156 5.59036 3.097102 0 5.590337-2.49326 5.590337-5.59036v-12.63956c0-3.09711-2.493235-5.59036-5.590337-5.59036zm113.752943 3.17727c-3.09713 0-5.59036 2.49324-5.59036 5.59034v9.202c0 3.0971 2.49323 5.59034 5.59036 5.59034 3.09711 0 5.59034-2.49324 5.59034-5.59034v-9.202c0-3.0971-2.49323-5.59034-5.59034-5.59034z"/>
  </g>
</svg>
