<svg xmlns="http://www.w3.org/2000/svg" xml:space="preserve" viewBox="0 0 135.62378 82.572517">
  <path d="m6.378938-.000004-.765845.317293c-1.47673.611683-3.509477 4.414883-4.589384 8.587587-.225963.87312-.548664 3.052204-.717269 4.842084l-.306441 3.25459.307475 2.83083c.169117 1.55706.553575 3.72433.854728 4.81573.763987 2.76873 2.841837 6.91142 4.635893 9.24336l1.514119 1.96784-.637687.39687c-.350828.21829-1.364991 1.12447-2.253092 2.01384-1.813319 1.81588-3.008241 4.03411-3.72277 6.90965l-.45372 1.82521.01189 3.96875c.008 2.69505.152322 4.59189.449585 5.91024 1.540646 6.83269 4.859526 12.57606 8.839254 15.29622 1.944379 1.32899 3.29867 1.75935 5.510774 1.75235l1.611788-.005 1.732711-.82734c.953063-.45486 2.332002-1.36567 3.064413-2.02417l1.331701-1.19734 1.088823.17415c.598813.0958 1.054351.25848 1.012341.36122-.04201.10275-1.148056 1.98885-2.457731 4.19147l-2.38125 4.00493-6.163448.006-6.163448.006-.649573.64957c-.357184.35719-.649573.82737-.649573 1.04542 0 .7021.574098 1.68264 1.154968 1.973l-.000516.00052c.364455.1822 2.867139.26211 7.047632.22531l6.482291-.0568.937411-.58343.93741-.58291 3.03134-5.03845 3.031339-5.03897.610299-.00052c.335768-.0004 1.437109.13599 2.447396.30282l1.837097.30335v6.80165h-2.39882c-1.319241 0-2.634381.12623-2.922819.2806-1.289569.69015-1.096527 2.84739.306958 3.42873.498854.20664 1.752768.28334 3.54397.21704l2.771407-.10283.738973-.54726c.406224-.30096 1.00635-.94054 1.333768-1.42162l.595313-.87488v-7.12773l2.315104.18552c1.273295.10222 2.612764.33806 2.976563.524.363797.18594 1.685533.89095 2.937288 1.56631 5.65034 3.04855 11.210128 3.03768 15.244544-.0289l.85111-.64699 1.53014.10801c2.136872.15059 13.843662-.23838 17.669212-.58705 7.08658-.64588 13.5833-1.75869 20.18791-3.45715 2.22667-.57261 4.13847-1.04076 4.24781-1.04076.10934 0 1.02562 2.27451 2.03657 5.05447l1.83813 5.05447.88831 1.03973c.48858.57202 1.38156 1.30386 1.98438 1.62626l1.09606.58653 6.71793.0827c7.20145.0889 7.93335-.0123 8.4615-1.17151.44022-.96617.37138-1.37631-.35088-2.09858l-.64906-.64905h-13.224l-.68058-.59583-.68057-.59531-1.71566-4.68912c-.94342-2.57904-1.71463-4.78173-1.71411-4.8948.00053-.11305 1.04233-.60515 2.31511-1.09347 3.43264-1.317 10.35033-4.79509 10.79262-5.42654.46511-.66397.48672-1.74192.046-2.28462-.17727-.21827-1.07063-1.0371-1.98541-1.82004-.91478-.78295-1.62715-1.46-1.58285-1.5043.0443-.0443 3.11422-.21297 6.82233-.37465 3.70809-.1617 7.17458-.4078 7.70288-.54726l.96067-.25373.33331-.8046.3328-.8046-.29559-.64906c-.66098-1.4507-12.10368-7.77311-20.81268-11.49956-3.56213-1.52417-11.31448-4.34513-14.59653-5.31182l-2.16111-.63665-1.91616-5.29322c-2.5964-7.17227-3.15534-8.37209-4.30981-9.25266-2.41993-1.84578-5.46189-1.9262-7.6321-.20154-.50264.39945-2.75772 2.8089-5.01106 5.35419l-4.09691 4.62815-.90795-.0129c-.49931-.007-2.81298-.18469-5.14129-.39429-5.987662-.53906-19.271718-.48378-25.267711.1049-8.511924.83569-16.257711 2.12617-21.960417 3.65921l-3.042708.81803-2.116667-.0553c-1.164155-.0302-2.21461-.15065-2.334224-.26768-.49161-.48097-2.280335-6.42427-2.706295-8.99222l-.457336-2.75849.150378-2.93005c.205003-3.98826.757596-5.66846 3.229777-9.823694.628152-1.05579.374079-2.09648-.640271-2.621029l-.766361-.395841-.806153.281119c-1.729631.602961-4.189769 5.720095-4.813143 10.011275-.541526 3.72777-.160129 7.9525 1.219564 13.50926l.163814.66146-.558622-.66146c-.959772-1.13625-2.62473-4.81329-3.238562-7.15202l-.588078-2.24121-.01292-3.96875-.0124-3.96875.471806-2.18488c.54869-2.542604 1.52075-4.945066 2.75487-6.807337C8.628696 2.04371 8.565056 1.130015 7.168052.407603zM87.46856 22.81566c.45611-.0105.93504.0759 1.28467.26303.622.33288 1.63672 2.53707 1.37253 2.98173-.69115 1.16329-17.95533 27.31113-20.99097 31.79238-8.327846 12.29373-9.699986 13.98072-12.01683 14.77016-1.512208.51525-4.00288.54913-5.705595.078-1.240437-.34319-4.7902-2.02355-5.66167-2.67994l-.502812-.37827 1.711007-1.9265c.941014-1.05942 10.089982-11.45109 20.33105-23.09265C77.53103 32.98205 86.0958 23.31174 86.32237 23.13447c.25701-.20104.69008-.30835 1.14619-.31884zM18.860347 42.36951a7.4523306 7.4523306 0 0 1 7.452258 7.45225 7.4523306 7.4523306 0 0 1-7.452258 7.45226 7.4523306 7.4523306 0 0 1-7.452775-7.45226 7.4523306 7.4523306 0 0 1 7.452775-7.45225z"/>
</svg>
