<svg xmlns="http://www.w3.org/2000/svg" xml:space="preserve" viewBox="0 0 132.62445 126.11592">
  <path d="M6.64611.000452c-.403472.0097-.683084.174072-1.088823.57981-.666594.666597-.680578.758309-.680578 4.383195 0 7.781907 1.907268 17.07232 5.609993 27.321848l1.607654 4.44986-.632519.89761c-.347846.49355-1.494348 2.11967-2.548165 3.61374-4.273236 6.05847-7.057631 12.98889-8.446513 21.02507-.617216 3.57126-.624154 11.93441-.01292 15.47813 1.781047 10.32585 5.502388 17.79886 12.201322 24.50186 5.447131 5.45043 11.112721 8.84066 22.515938 13.47411 8.177735 3.32286 25.171877 9.15344 29.897917 10.25777.99919.23348 1.59181.18019 3.74654-.33641 2.71456-.65082 12.95792-4.00829 19.44584-6.37377 18.22961-6.64643 25.05357-10.31971 31.78669-17.11058 3.63829-3.66949 5.45991-6.21171 7.72976-10.78694 3.12222-6.29333 4.51691-12.01072 4.80746-19.71146.45543-12.07091-3.10264-23.00869-10.70115-32.89722-.65264-.84933-1.1865-1.80603-1.1865-2.12597 0-.31993.47781-1.88736 1.06196-3.48299 3.97126-10.847826 5.59687-18.224854 5.81256-26.378231.1516-5.730824.0319-6.306139-1.38028-6.660576-.95667-.240108-1.83483.195731-10.0583 4.99246-3.92904 2.291809-10.51666 6.074896-14.6389 8.406722l-7.49515 4.240052-3.08818-1.326534c-7.87125-3.380186-15.30421-4.82813-24.78402-4.82813-6.10162 0-9.92329.439205-15.211471 1.748731-4.038732 1.000122-5.673349 1.551225-9.828858 3.31401l-2.550231 1.082104-8.694559-4.960421c-4.781909-2.728209-11.661296-6.681555-15.287439-8.784993C10.929043 1.89987 7.574466.11615 7.100346.03921 6.929119.01142 6.7806-.00279 6.64611.00045zm29.102616 39.550043c1.84079.0274 3.695231.23144 5.111316.60513 5.687192 1.50076 10.347341 4.60817 14.634764 9.75754 2.56684 3.08289 4.18049 5.71839 7.28121 11.89437 2.54572 5.07049 2.8874 5.62133 3.48402 5.62033.59555-.001.94354-.56192 3.4954-5.62602 3.22664-6.4032 5.11047-9.39847 7.96075-12.65711 3.84932-4.40077 8.94134-7.71926 13.81156-9.001 2.74169-.72156 7.63197-.78855 10.27328-.14107 5.83166 1.42954 11.61592 5.469 14.98099 10.46241 2.46788 3.66202 4.49011 8.98214 5.086 13.38006.4415 3.25843.13404 10.15257-.56121 12.58166-2.64709 9.24861-7.65512 15.67863-15.24506 19.57555-6.44424 3.30867-13.83061 3.76116-21.08967 1.29191l-2.48719-.84594-7.64914 7.71839c-6.2725 6.32872-7.77847 7.71832-8.36383 7.71632-1.03313-.003-2.86561-1.63476-10.1043-8.99893l-6.320021-6.4301-2.543514.83096c-3.962596 1.29398-5.180373 1.49033-9.157581 1.47743-2.85137-.009-4.221934-.14056-5.953125-.57051-5.167905-1.28347-9.543545-3.81126-13.247253-7.65328-3.946571-4.09395-6.272763-8.25689-7.703922-13.78727-1.047726-4.04871-1.32046-9.95088-.63252-13.68599 2.187156-11.87495 9.691856-20.56759 19.908862-23.06061 1.361924-.33231 3.189394-.48164 5.030184-.45423zm57.6032 13.85755c-6.16025 0-11.79255 4.64095-13.32528 10.98021-.50751 2.09898-.39411 6.06453.23047 8.06979 1.50161 4.82101 5.74257 8.96469 10.26449 10.02884 1.60832.37849 4.60149.32365 6.28644-.11523 4.76737-1.24174 8.7594-5.33958 10.05778-10.32444.51912-1.99307.519-5.91821-.00051-7.91269-.63155-2.42472-1.93076-4.59824-3.95945-6.62544-2.89699-2.89484-5.70688-4.10104-9.55394-4.10104zm-54.090236.003c-7.734836-.014-13.992337 6.60762-14.008447 14.8239-.01272 6.48656 4.222949 12.34364 10.155452 14.04204 2.030216.58127 4.877304.62014 6.895187.0946 4.777551-1.24439 8.626122-5.07649 10.088794-10.0459.63062-2.14258.63062-6.32408 0-8.46667-1.803702-6.12806-7.219471-10.43724-13.130986-10.44794zm49.944236 8.33282c.18508-.006.37042-.00042.55501.0165 2.58411.23815 5.0092 2.63087 3.99407 3.45457-1.01926.82705-4.28438-1.57269-7.25537.21136-1.50012.9008-.03-3.23875 2.15335-3.6251.18305-.0324.36786-.0514.55294-.0574zm-45.912957.046c.185078.006.369891.025.552937.0574 2.183349.38638 3.653477 4.5259 2.153357 3.6251-2.97102-1.78405-6.236114.61569-7.255371-.21136-1.015121-.8237 1.409931-3.21642 3.994072-3.45457.184581-.017.369926-.0229.555005-.0165zm22.971207 13.97537c-.21506 0-1.46517 1.56095-2.77761 3.46904-1.31244 1.90808-3.09029 4.34887-3.95118 5.42396-.86089 1.07509-1.67219 2.09485-1.80247 2.26601-.53391.70144 6.02448 13.42041 7.87342 15.26935.81395.81395 1.2502.45501 3.17861-2.61586 1.34843-2.14728 5.60363-10.55362 6.04098-11.93415.13737-.4336-.22029-1.0357-1.61541-2.72232-.98533-1.19124-2.86324-3.73889-4.17338-5.66115-1.31016-1.92225-2.55791-3.49488-2.77296-3.49488z"/>
</svg>
