<svg xmlns="http://www.w3.org/2000/svg" xml:space="preserve" viewBox="0 0 135.59378 109.58129">
  <path fill-rule="evenodd" d="M135.593788 0s-47.81965 28.15717-50.33646 29.57287c-2.51681 1.41571-19.03346 25.32559-19.03346 25.32559S48.92092 31.22443 47.426561 29.65142C45.932203 28.07841-.000002.786515-.000002.786515s7.078796 13.292278 10.932666 18.011304c3.853871 4.719023 13.606342 13.606431 16.437757 15.572691 2.831414 1.96626 7.393368 9.59521 8.966378 12.03338 1.573009 2.43816 5.269445 17.30333 5.269445 17.30333l.110071.63769c-.653981-.0125-1.175381-.0377-1.862935-.047l-.273885-.005c-7.542737-.13242-13.727491 5.75973-14.012582 13.261724h-6.524666c-4.475598.009-8.246359 3.34498-8.801013 7.78609h17.216003c.04941 0 .09733-.005.146245-.007 2.381113 3.85621 6.604898 6.45439 11.491805 6.54017l19.396232.25632c-.000121.009-.0026.018-.0026.0274v6.80837c.000077.24972.04579.49738.134875.7307 0 0 .425982 1.14693 1.283126 2.31252.857148 1.1656 2.365838 2.6703 4.632798 2.62103 1.9238-.0418 5.51924-.01 7.47293.002v2.89853c-.00029 1.13176.91668 2.04966 2.04845 2.05052 1.13278.00057 2.05133-.91775 2.05104-2.05052v-3.0856c1.1996.004 2.3809.0133 3.24011.0191v3.06648c-.00029 1.13277.91826 2.05109 2.05104 2.05052 1.13258.00029 2.0508-.91795 2.05051-2.05052v-5.11545c.0005-1.12592-.90708-2.04156-2.03294-2.05104 0 0-6.42007-.0574-9.29142 0-.4848.01-.70264-.22215-1.05834-.8046-.32079-.52531-.43653-.98963-.46509-1.09554v-6.17379l15.92771.21084c6.02609-.0785 12.93767-.8043 16.41243-3.27525 3.52663-2.50782 4.72393-4.17895 5.94124-5.31647.60869-.56877 1.22743-1.00246 2.12494-1.31672.89751-.31423 2.06998-.51202 3.807-.63045 6.82863-.46559 12.55619-.31457 12.72636-.31057-.006-.1336-.038-1.24237-.56638-2.57246-.55927-1.40781-1.61795-2.88736-3.68194-3.26956-1.03534-.19173-9.91307-2.37249-19.43189-3.69228-7.09344-.983534-8.58107-1.369484-13.902-2.189024l.0129-.0863s6.99979-23.98811 7.629-25.24652c.62919-1.25841 17.53915-16.59531 21.78626-20.213236 4.24713-3.61792 16.20211-24.381974 16.20211-24.381974zm-97.62143 73.028624c1.167122.00016 2.11317.94645 2.113049 2.11356.000121 1.16714-.945927 2.1134-2.113049 2.11357-1.167324.00012-2.113687-.94623-2.113566-2.11357-.000121-1.16731.946242-2.11368 2.113566-2.11356zm24.61607 19.15542 3.91811.0517v6.56394c-.00003.15248.017.30449.0506.45321 0 0 .11796.53559.41599 1.25573-.9774.003-1.88165.01-2.52129.0238-.29126.006-.76009-.29768-1.2423-.95343-.39606-.53856-.5426-.92014-.62116-1.10329z" paint-order="stroke fill markers"/>
</svg>
