<svg xmlns="http://www.w3.org/2000/svg" xml:space="preserve" viewBox="0 0 159.45403 132.13304">
  <path fill-rule="evenodd" d="M156.672106.00002s-19.8202 10.6961-20.4494 11.0107c-11.01099-.9438-16.044503 2.20245-16.044503 2.20245l-15.73031.31471 6.92155 7.55044-18.24695-.94413s11.0111 13.52829 10.6965 14.78669c-36.808153 13.21318-19.82061 5.0337-55.684973 9.12348-6.24066.71166-11.25777 2.72886-15.32671 5.54333.0258-.0593.22582-.51005.22582-.51005-3.4606.31459-27.37026-7.86466-29.88706 18.87637.7865 5.34823 3.06723 14.39292-1.88774 21.15685 16.32739-7.57382 14.42752-11.28606 16.22278-13.51804-2.14358 10.29029-1.4366 19.10219-1.4366 19.10219s-5.34836 3.14642-7.86516 5.66322C5.66256 102.87501.00001 132.13304.00001 132.13304h17.70744c.0276-.98206.009-1.81417-.0667-2.06603-.35546-1.18489-1.45413-2.49434-2.50785-3.43906-1.05372-.94471-1.98438-1.51774-1.98438-1.51774-.56465-.34724-.7601-1.07486-.44545-1.6583 0 0 2.19525-4.07579 4.38681-8.45891 1.09578-2.19157 2.19139-4.46178 3.00189-6.31434.40525-.92629.73903-1.74986.96273-2.38901.2237-.63913.30903-1.17086.30903-1.12086.00039-.46995.26432-.89998.68316-1.11311C51.90213 88.85718 46.3496 65.85336 46.3496 65.85336s6.9573 24.65421-22.67769 40.14536c-.0804.35391-.10982.69426-.25786 1.11724-.25804.73724-.61244 1.60492-1.03302 2.56625-.84116 1.92264-1.94816 4.21517-3.05459 6.42803-1.96794 3.93587-3.52123 6.81767-3.93206 7.58404.43887.30289.66967.41154 1.40663 1.07228 1.22714 1.10018 2.6461 2.62052 3.23443 4.58164.24001.80004.24972 1.75219.20051 2.78484h11.85354c.3146-2.20221-5.03381-8.80877-5.03381-8.80877s7.55056-13.84282 7.86516-16.04501c16.04458-11.6402 11.9547-19.50545 16.0445-18.56166 4.08979.94381 28.314546-.31419 28.314546-.31419l6.92103 43.41492h18.29087c-.003-.0137-.004-.0387-.007-.0522-.34286-1.60003-2.20664-3.49781-4.28707-5.19297-1.04021-.84757-2.10587-1.65404-3.01171-2.44532-.90581-.7913-1.69296-1.51269-2.08824-2.56677-.15819-.42185-.18308-.72548-.24598-1.21853-.0629-.49306-.12238-1.10964-.18138-1.84382-.118-1.46836-.23322-3.40371-.34417-5.65237-.22191-4.49728-.42804-10.24334-.60513-15.91014 1.23553-2.69121.63252-23.62491.63252-23.62491l1.86759 23.54688c.17684 5.65886.38256 11.39636.60306 15.86518.11026 2.23442.22368 4.15229.33796 5.57434.0571.71102.11532 1.29995.17002 1.72858.0546.42863.14769.76354.10749.65629.0766.20433.5858.85912 1.39061 1.56218.80482.70305 1.86376 1.50782 2.94711 2.39055 2.16668 1.76545 4.54965 3.8014 5.15059 6.6058.0356.16613.0524.39614.0837.57722h7.81813c1.88761-4.40439-8.17935-10.06708-8.17935-10.06708s-1.57315-33.34812-1.88774-37.12332c38.69576-18.87598 40.89828-51.90949 40.89828-51.90949s9.43822-8.80879 11.01122-10.3818c1.57299-1.57299 5.38298-17.19275 0-22.33662zm-30.22865 18.32343h4.23282v4.23333h-4.23282zM112.639643 36.9342c-.22735.35828-.55488 1.19339-1.36426 2.14974-1.01559 1.20001-3.14818 3.15525-5.68492 5.38365 3.73982.43125 7.65176.90196 10.89132 1.21801a.69.69 0 0 1 .58447.91364c-.59923 1.72278-1.24565 3.84446-1.88051 5.86631.32713-.0614.30522-.0531.74156-.14418 1.48523-.31013 3.22557-.73436 5.00589-1.29811 2.34094-.74127 4.145973-1.53076 5.575893-2.31045.37421-.20405.70528-.39769.99994-.57774.53627-.3277.99597-.63181 1.39216-.91468 1.05506-.75329 1.68191-1.37157 1.98541-1.79162-.14514.46655-.39923 1.41591-1.28106 2.52388-.33447.42024-.75749.86165-1.29139 1.30328-.29255.24199-.62905.49434-1.01389.75344-1.45594.98022-3.39328 1.91181-5.808443 2.72335-1.83832.61771-3.67074 1.07028-5.19916 1.37614-1.31371.2629-2.25851.38324-2.27635.36897a1.573106.36278684 37.720508 0 1-.94723-1.15807c.78852-2.09638 1.68755-4.37283 2.39934-6.34431-3.65849-.34061-8.04491-.65809-12.03751-.98806a.86973171.88567857 26.326681 0 1-.50074-1.52652c3.08474-2.85395 5.8722-5.35776 7.42383-6.40426 1.03871-.70055 1.90477-.93538 2.28565-1.12241z" paint-order="stroke fill markers"/>
</svg>
