<svg width="609.497" height="495.32" viewBox="0 0 161.263 131.053" xml:space="preserve" xmlns="http://www.w3.org/2000/svg">
  <path style="fill:#000;stroke-width:1.9235" d="M160.806-15.878c3.316-1.915 8.697-5.89 8.697-6.425 0-1.132-5.967-6.296-7.948-6.879-4.505-1.325-7.585-.383-11.519 3.522-1.61 1.598-2.926 3.104-2.926 3.347 0 .736 10.087 7.775 11.151 7.782.116 0 1.26-.606 2.545-1.347zm-8.374-15.713c5.893-2.883 12.097-1.305 17.247 4.385l2.752 3.042 4.188-4.471c8.927-9.53 15.238-21.47 18.325-34.666.705-3.011.742-2.944-2.665-4.9-1.804-1.036-2.464-1.214-2.606-.704-.106.376-.688 2.866-1.296 5.535-1.893 8.32-5.768 16.106-10.683 21.464-1.942 2.117-3.061 2.953-3.811 2.845-1.838-.263-1.473-1.761 1.131-4.637 5.04-5.565 8.9-13.767 10.81-22.973.52-2.506.844-4.657.72-4.78-.123-.124-1.66-1.09-3.416-2.147-2.169-1.305-3.294-1.73-3.509-1.326-.174.327-.474 2.049-.667 3.826-.833 7.673-4.76 17.241-9.127 22.23-1.231 1.406-3.468 3.239-4.97 4.07-2.358 1.306-3.255 1.512-6.549 1.502-4.705-.016-7.168-1.172-11.018-5.18-4.743-4.936-8.873-15.115-9.692-23.886-.169-1.8-.444-3.209-.613-3.13-.168.08-1.735.947-3.48 1.927-3.72 2.086-3.78 2.337-2.165 9.073 1.942 8.1 5.712 15.72 10.214 20.646 2.636 2.884 3.063 4.462 1.3 4.802-2.044.394-7.683-6.687-11.054-13.882-1.133-2.417-2.652-6.847-3.377-9.845-.725-2.998-1.395-5.752-1.49-6.12-.126-.49-.871-.29-2.78.749-1.433.78-2.708 1.683-2.832 2.006-.123.323.143 2.047.593 3.831 3.305 13.106 9.5 24.631 18.157 33.776l4.122 4.354 2.747-3.036c1.683-1.86 3.813-3.557 5.494-4.38zM91.16-44.429c8.653-4.978 9.853-6.19 9.441-9.543-.344-2.804-2.622-4.835-5.424-4.835-1.643 0-3.511.855-9.535 4.36-4.12 2.398-7.69 4.555-7.933 4.793-.464.455 4.59 9.678 5.302 9.678.224 0 3.891-2.004 8.15-4.453zm145.517-.17c1.495-2.59 2.474-4.812 2.226-5.055-.242-.238-3.812-2.395-7.933-4.793-6.023-3.505-7.892-4.36-9.534-4.36-4.208 0-6.96 4.82-4.757 8.33.581.924 3.712 3.1 8.55 5.94 4.2 2.465 7.893 4.5 8.208 4.521.315.022 1.773-2.04 3.24-4.583zm-76.127-2.043c1.094-.303 2.874-1.138 3.956-1.854 1.958-1.295 5.505-5.606 5.505-6.69 0-.4-3.43-.567-11.705-.567s-11.705.166-11.705.568c0 1.09 3.553 5.398 5.532 6.707 1.76 1.165 4.42 2.219 5.919 2.346.28.023 1.404-.206 2.498-.51zm-48.43-13.91 5.98-3.428-.325-2.12c-.178-1.167-.385-2.195-.46-2.285-.155-.188-15.5 8.55-15.5 8.827 0 .101.486 1.007 1.08 2.013 1 1.695 1.158 1.777 2.162 1.124.597-.387 3.775-2.246 7.064-4.131zm101.609 2.989c.587-.996 1.068-1.89 1.068-1.986 0-.298-15.322-9.043-15.509-8.852-.096.099-.253 1.155-.348 2.348l-.174 2.17 6.87 4.034c3.78 2.219 6.905 4.048 6.948 4.065.042.017.557-.784 1.145-1.78zm-40.065-5.552c.749-2.23 1.25-4.233 1.115-4.453-.136-.22-7.562-.4-16.503-.4-18.479 0-16.939-.46-15.438 4.616 1.484 5.016-.058 4.58 15.618 4.426l13.846-.135zm-50.171-8.534 2.75-1.645.003-6.88c.004-11.154 1.959-20.247 6.186-28.759 3.246-6.538 8.339-12.65 10.304-12.369 1.832.263 1.464 1.764-1.138 4.637-5.088 5.618-9.242 14.592-11.023 23.815-1.106 5.722-1.655 17.249-.823 17.249.335 0 2.087-.85 3.894-1.89l3.285-1.89.004-2.563c.002-1.41.333-4.74.736-7.398 3.065-20.212 14.663-32.065 26.146-26.72 3.947 1.838 7.719 6.024 10.467 11.617 2.835 5.77 4.2 10.978 4.978 18.994l.6 6.181 3.268 1.912c2.65 1.55 3.352 1.776 3.719 1.198 1.064-1.681.027-13.316-1.846-20.704-1.722-6.794-5.94-15.248-9.638-19.32-2.92-3.214-3.41-4.787-1.603-5.135 2.025-.39 7.68 6.68 10.984 13.735 3.772 8.054 5.618 17.162 5.621 27.735l.002 6.694 2.672 1.526c1.547.883 2.87 1.339 3.14 1.082.815-.772.549-17.06-.362-22.103-2.916-16.153-9.426-28.947-20.643-40.57l-2.807-2.909-2.721 3.007c-6.954 7.685-15.363 7.805-22.44.322-1.485-1.57-2.895-2.854-3.134-2.854-.239 0-2.268 1.96-4.51 4.356-14.173 15.149-21.574 36.993-19.604 57.86.179 1.89.428 3.435.553 3.435.126 0 1.467-.74 2.98-1.646zm52.392-2.163c.192-1.535.233-3.08.091-3.435-.142-.354-4.175-2.896-8.964-5.649l-8.706-5.004-8.706 5.004c-4.788 2.753-8.822 5.295-8.964 5.649-.141.354-.1 1.9.091 3.435l.349 2.791h34.46zM149.44-86.543c4.602-2.66 8.605-4.835 8.896-4.835.291 0 4.28 2.176 8.864 4.835 4.585 2.659 8.5 4.835 8.7 4.835.665 0-.288-8.006-1.539-12.937-2.176-8.581-6.928-16.06-11.612-18.276-2.497-1.181-6.369-1.19-8.843-.019-4.725 2.236-9.468 9.683-11.653 18.295-1.248 4.921-2.204 12.937-1.542 12.937.2 0 4.127-2.176 8.73-4.835zm12.116-44.638c2.02-.595 7.948-5.756 7.948-6.922 0-.469-7.584-5.871-10.079-7.18-1.005-.527-1.512-.418-3.562.766-3.364 1.943-8.752 5.918-8.752 6.457 0 .248 1.317 1.761 2.926 3.362 3.906 3.886 7.026 4.838 11.52 3.517z" transform="translate(-77.679 145.585)"/>
</svg>
