<?xml version="1.0" encoding="UTF-8" standalone="no"?>
<!-- Created with Inkscape (http://www.inkscape.org/) -->

<svg
   width="165.02039mm"
   height="142.30984mm"
   viewBox="0 0 165.02039 142.30984"
   version="1.1"
   id="svg1"
   xml:space="preserve"
   xmlns:inkscape="http://www.inkscape.org/namespaces/inkscape"
   xmlns:sodipodi="http://sodipodi.sourceforge.net/DTD/sodipodi-0.dtd"
   xmlns="http://www.w3.org/2000/svg"
   xmlns:svg="http://www.w3.org/2000/svg"><sodipodi:namedview
     id="namedview1"
     pagecolor="#ffffff"
     bordercolor="#999999"
     borderopacity="1"
     inkscape:showpageshadow="2"
     inkscape:pageopacity="0"
     inkscape:pagecheckerboard="0"
     inkscape:deskcolor="#d1d1d1"
     inkscape:document-units="mm" /><defs
     id="defs1" /><g
     inkscape:label="Layer 1"
     inkscape:groupmode="layer"
     id="layer1"
     transform="translate(-450.21293,148.72113)"><path
       style="fill:#000000;stroke-width:1.37954"
       d="m 486.26833,-6.8100395 c -2.17021,-0.50948 -5.4835,-2.4186437 -7.29237,-4.2019655 -6.29628,-6.207335 -6.12856,-16.276629 0.37352,-22.426027 6.04571,-5.717785 15.71338,-5.598483 21.58238,0.266334 2.22081,2.219208 3.91906,5.528576 4.53402,8.835412 1.04474,5.61779 -2.23032,12.669285 -7.25072,15.6114351 -3.50452,2.0537851 -8.16976,2.8015191 -11.94683,1.9148114 z m 7.11113,-9.1484995 c 4.1166,-2.31365 4.763,-8.109396 1.2486,-11.195078 -4.57926,-4.02064 -11.50524,-0.958814 -11.50524,5.086217 0,1.740686 0.19147,2.357246 1.18627,3.820016 0.65244,0.959367 1.75858,2.045566 2.45808,2.413775 1.79386,0.944271 4.81134,0.887261 6.61229,-0.124931 z m 39.24436,9.1484995 c -4.11513,-0.9660713 -8.53832,-4.7113755 -10.49023,-8.8825445 -3.4752,-7.426304 0.0622,-17.107174 7.48343,-20.479931 4.17273,-1.896405 8.35772,-1.945206 13.13091,-0.153117 2.70536,1.015722 6.25367,4.40577 7.67223,7.33002 2.86954,5.915352 1.84454,12.789311 -2.61856,17.560713 -3.81385,4.0773206 -9.774,5.8934534 -15.17778,4.6248595 z m 7.11115,-9.1484995 c 4.11658,-2.31365 4.76298,-8.109396 1.24858,-11.195078 -3.33193,-2.925475 -7.69318,-2.308471 -10.52882,1.489556 -1.55332,2.080498 -1.03475,6.766285 0.94905,8.575526 2.27523,2.075045 5.79924,2.553023 8.33119,1.129996 z m 38.58003,8.8497431 c -2.91248,-0.9312323 -4.95935,-2.2146783 -6.98396,-4.3791591 -5.42031,-5.794739 -5.52681,-14.923698 -0.24413,-20.925138 4.61202,-5.239524 12.6816,-6.770514 18.91765,-3.58912 3.55683,1.814558 6.84864,6.00655 7.89652,10.055898 1.77655,6.865126 -1.34939,14.169834 -7.49518,17.5147948 -3.81526,2.0765158 -8.22469,2.5589017 -12.0909,1.3227243 z m 7.97089,-8.9775531 c 0.94864,-0.555939 1.95694,-1.576254 2.53872,-2.56898 0.82642,-1.410206 0.94241,-1.960075 0.80731,-3.827744 -0.17296,-2.391109 -0.77104,-3.45116 -2.9356,-5.203082 -2.61913,-2.119831 -6.64985,-1.589886 -9.17616,1.206447 -5.13565,5.684548 2.12034,14.287825 8.76573,10.393359 z M 463.41261,-52.394531 v -34.310364 h -3.45407 -3.45408 l -2.42517,-4.106292 c -1.33384,-2.25846 -2.74943,-4.640111 -3.14576,-5.292559 l -0.7206,-1.186262 h 38.17268 38.17267 v 16.607677 16.607676 h 31.4289 c 27.40822,0 31.71247,0.07347 33.64554,0.574392 5.89962,1.528741 11.04446,5.725169 13.86259,11.30709 3.08601,6.112531 2.66552,14.702241 -1.00023,20.43274 l -1.2277,1.919204 4.14409,0.131553 c 4.58913,0.145678 5.39059,0.475062 7.05379,2.898978 1.12458,1.638914 0.99516,4.78021 -0.26315,6.3872 -1.47717,1.886501 -2.73935,2.307024 -6.97797,2.32485 l -3.83255,0.01611 0.11506,-3.415087 c 0.2058,-6.109036 -1.78732,-11.156666 -6.07274,-15.379366 -4.0686,-4.009077 -8.9619,-6.016656 -14.66503,-6.016656 -5.88549,0 -10.26095,1.847389 -14.64175,6.181995 -4.4954,4.447987 -6.34491,9.124976 -6.10329,15.433878 l 0.12237,3.193967 -2.55504,6.54e-4 -2.55502,6.54e-4 0.11712,-3.28576 c 0.22688,-6.363321 -1.54101,-10.802744 -6.11017,-15.343393 -4.35914,-4.331957 -8.73726,-6.181995 -14.6297,-6.181995 -5.16257,0 -9.22722,1.462573 -13.37529,4.812802 -4.96383,4.009064 -7.57114,9.699423 -7.53181,16.437883 l 0.0207,3.558786 -2.42322,1.85e-4 -2.42321,1.84e-4 0.1254,-3.225308 c 0.22964,-5.90967 -1.81368,-11.161697 -5.99521,-15.409699 -3.84925,-3.910457 -7.98717,-5.748907 -13.65783,-6.068093 -7.25923,-0.408604 -13.52442,2.431559 -17.7428,8.043241 -3.24337,4.314627 -4.20047,7.248409 -4.21438,12.918201 l -0.01,3.741289 h -2.88697 -2.88697 z m 50.18804,-23.177745 v -7.665081 l -18.48149,-0.09457 -18.48146,-0.09457 -0.1811,1.919592 c -0.16132,1.709782 -0.14374,8.731526 0.031,12.416798 l 0.0652,1.372109 18.52395,-0.09459 18.52394,-0.09459 z m 56.7581,-0.365004 v -6.387569 h -1.82502 -1.82501 v -4.74505 -4.74505 h 11.31511 11.31511 v 4.74505 4.74505 h -1.82501 -1.82502 v 6.387569 6.387567 h -7.66508 -7.66508 z m 1.46001,-25.70096 c 0,-6.21326 -0.21045,-7.28119 -1.75698,-8.91575 -1.36012,-1.43752 -2.70073,-2.06618 -4.4062,-2.06618 -3.0461,0 -4.73428,1.24496 -6.26224,4.61815 -3.63614,8.027318 -13.31791,10.616399 -20.81308,5.56578 -2.10413,-1.41787 -4.55194,-4.793 -5.18048,-7.14299 -0.38369,-1.43461 -0.49072,-1.53763 -1.34787,-1.29753 -3.15022,0.88245 -7.33506,-0.35951 -9.76176,-2.89708 -2.45268,-2.5647 -3.3204,-6.59643 -2.13513,-9.92057 0.4474,-1.2547 0.42981,-1.52256 -0.16775,-2.55503 -3.25284,-5.62033 -1.92163,-13.88533 2.94055,-18.25685 6.58515,-5.92061 16.38422,-5.56291 22.35084,0.81589 0.94741,1.01286 1.91546,2.26493 2.15123,2.78235 0.29468,0.64677 0.60796,0.86617 1.00238,0.70197 5.67575,-2.36255 13.34508,0.48416 15.99966,5.93876 0.50957,1.04705 0.68202,1.13985 1.69577,0.91251 2.32783,-0.52204 6.8895,-0.20454 9.05814,0.63045 4.52931,1.74392 8.08664,5.39501 9.63026,9.88408 0.62417,1.81521 0.69031,3.1964 0.69031,14.41766 v 12.410123 l -6.84383,0.0993 -6.84382,0.0993 z"
       id="path86"
       sodipodi:nodetypes="sssssssssssssssssssssssssssssssssssssssccccsscccccsssscsssscssssscccssssscccsssscccccccccsscccccccccccccccccccccssssssssssssssssssscccs" /></g></svg>
