<?xml version="1.0" encoding="UTF-8" standalone="no"?>
<!-- Created with Inkscape (http://www.inkscape.org/) -->

<svg
   width="161.26266mm"
   height="131.05338mm"
   viewBox="0 0 161.26266 131.05338"
   version="1.1"
   id="svg1"
   xml:space="preserve"
   xmlns:inkscape="http://www.inkscape.org/namespaces/inkscape"
   xmlns:sodipodi="http://sodipodi.sourceforge.net/DTD/sodipodi-0.dtd"
   xmlns="http://www.w3.org/2000/svg"
   xmlns:svg="http://www.w3.org/2000/svg"><sodipodi:namedview
     id="namedview1"
     pagecolor="#ffffff"
     bordercolor="#999999"
     borderopacity="1"
     inkscape:showpageshadow="2"
     inkscape:pageopacity="0"
     inkscape:pagecheckerboard="0"
     inkscape:deskcolor="#d1d1d1"
     inkscape:document-units="mm" /><defs
     id="defs1" /><g
     inkscape:label="Layer 1"
     inkscape:groupmode="layer"
     id="layer1"
     transform="translate(-77.678972,145.58479)"><path
       style="fill:#000000;stroke-width:1.9235"
       d="m 160.80614,-15.878314 c 3.31611,-1.91478 8.69643,-5.88954 8.69643,-6.42456 0,-1.13196 -5.96616,-6.29587 -7.94739,-6.87873 -4.50542,-1.32546 -7.58548,-0.38378 -11.519,3.52175 -1.60948,1.59804 -2.92632,3.10397 -2.92632,3.34652 0,0.73637 10.08687,7.77528 11.15164,7.78191 0.11541,7.3e-4 1.26045,-0.60538 2.54464,-1.34689 z m -8.37432,-15.71245 c 5.89283,-2.88309 12.09724,-1.30565 17.24691,4.3849 l 2.75247,3.04157 4.18748,-4.47079 c 8.92688,-9.53083 15.23799,-21.46929 18.32559,-34.66579 0.7046,-3.01152 0.74136,-2.94395 -2.66518,-4.90032 -1.80424,-1.03617 -2.46365,-1.21422 -2.6065,-0.70382 -0.10521,0.37581 -0.68807,2.86651 -1.29533,5.53492 -1.89346,8.31991 -5.76871,16.10598 -10.68276,21.46367 -1.94237,2.11771 -3.06179,2.95347 -3.81174,2.84583 -1.83813,-0.26383 -1.47273,-1.76156 1.1313,-4.63701 5.04038,-5.56576 8.89955,-13.76764 10.80953,-22.97348 0.51996,-2.50605 0.84446,-4.65737 0.72116,-4.78068 -0.1233,-0.1233 -1.66086,-1.08897 -3.41672,-2.1459 -2.16876,-1.30545 -3.29397,-1.73082 -3.50895,-1.32644 -0.17408,0.3274 -0.47423,2.04897 -0.66705,3.82572 -0.83278,7.67362 -4.76093,17.24146 -9.12656,22.22965 -1.23154,1.40717 -3.46837,3.23926 -4.97074,4.07133 -2.35728,1.30555 -3.25459,1.51125 -6.54853,1.50114 -4.70518,-0.0154 -7.16783,-1.17211 -11.0183,-5.1795 -4.74297,-4.93625 -8.87328,-15.11515 -9.69232,-23.88605 -0.16811,-1.8007 -0.44366,-3.20897 -0.61221,-3.12945 -0.16849,0.0794 -1.73513,0.94613 -3.48122,1.92582 -3.71849,2.08631 -3.77839,2.33748 -2.16365,9.07302 1.94175,8.0997 5.71194,15.72092 10.21385,20.64671 2.6355,2.88367 3.06259,4.46219 1.29921,4.8018 -2.04395,0.39362 -7.68234,-6.68748 -11.05399,-13.8824 -1.13235,-2.41636 -2.65172,-6.84634 -3.3764,-9.8444 -0.72467,-2.99806 -1.39509,-5.75236 -1.48982,-6.12065 -0.12599,-0.49001 -0.87158,-0.28898 -2.77942,0.74938 -1.43394,0.78046 -2.70857,1.68323 -2.83248,2.00615 -0.12388,0.32293 0.14272,2.04685 0.59266,3.83095 3.30486,13.10569 9.50052,24.63098 18.15698,33.77592 l 4.12163,4.3542 2.74771,-3.03633 c 1.68239,-1.85908 3.81228,-3.55719 5.49339,-4.37967 z m -61.271639,-12.83871 c 8.65284,-4.97732 9.852499,-6.18984 9.441159,-9.54236 -0.34409,-2.80442 -2.622209,-4.83479 -5.424779,-4.83479 -1.64219,0 -3.51104,0.85463 -9.53432,4.36002 -4.12047,2.398 -7.69044,4.55476 -7.93327,4.79281 -0.4636,0.45447 4.58922,9.67741 5.3018,9.67741 0.22436,0 3.89159,-2.00388 8.14941,-4.45309 z m 145.517079,-0.16927 c 1.49444,-2.58941 2.47352,-4.81265 2.2262,-5.05511 -0.24283,-0.23805 -3.8128,-2.39481 -7.93327,-4.79281 -6.02328,-3.50538 -7.89215,-4.36001 -9.53432,-4.36001 -4.20806,0 -6.9608,4.82057 -4.75639,8.32934 0.58096,0.92468 3.71165,3.09983 8.55041,5.94062 4.19864,2.46498 7.89169,4.49947 8.20679,4.52105 0.31509,0.0216 1.77335,-2.04081 3.24058,-4.58308 z m -76.12735,-2.04277 c 1.09406,-0.30378 2.87445,-1.13814 3.95642,-1.85414 1.95737,-1.29534 5.50516,-5.60636 5.50516,-6.6895 0,-0.40155 -3.42979,-0.56797 -11.70529,-0.56797 -8.2755,0 -11.70527,0.16638 -11.70527,0.56797 0,1.08964 3.55318,5.39774 5.53184,6.70716 1.75984,1.16458 4.42019,2.21891 5.91897,2.34572 0.27992,0.0237 1.40408,-0.20549 2.49817,-0.50924 z m -48.42938,-13.91093 5.97915,-3.42763 -0.32456,-2.12087 c -0.17851,-1.16647 -0.38521,-2.19427 -0.45932,-2.284 -0.15561,-0.1885 -15.50031,8.54987 -15.50031,8.82705 0,0.10117 0.48557,1.00706 1.07903,2.0129 0.99979,1.69454 1.15858,1.77708 2.16293,1.12449 0.59615,-0.38735 3.77454,-2.24672 7.06308,-4.13194 z m 101.60827,2.989 c 0.58747,-0.99568 1.06812,-1.8893 1.06812,-1.9858 0,-0.29731 -15.32193,-9.04274 -15.50843,-8.85188 -0.0964,0.0987 -0.25342,1.15543 -0.34898,2.34844 l -0.17369,2.16909 6.87047,4.03436 c 3.77879,2.21889 6.90513,4.04823 6.94747,4.06522 0.0423,0.0173 0.55762,-0.78375 1.14507,-1.77943 z m -40.06524,-5.55137 c 0.74905,-2.2295 1.25083,-4.2334 1.11505,-4.45309 -0.1358,-0.21968 -7.56187,-0.39943 -16.50243,-0.39943 -18.47892,0 -16.93915,-0.46031 -15.43805,4.6152 1.48369,5.01658 -0.0581,4.57962 15.61757,4.42637 l 13.84596,-0.13541 z m -50.17104,-8.5339 2.75138,-1.64567 0.002,-6.87883 c 0.004,-11.15461 1.95911,-20.247416 6.18599,-28.759726 3.24652,-6.53805 8.33884,-12.65084 10.30381,-12.36869 1.83206,0.26308 1.4639,1.76378 -1.1374,4.63622 -5.08809,5.61844 -9.24182,14.5922 -11.02353,23.815296 -1.10533,5.7219 -1.65516,17.2489 -0.82273,17.2489 0.33457,0 2.08676,-0.85034 3.89377,-1.88962 l 3.28547,-1.88965 0.004,-2.56346 c 0.002,-1.40991 0.3329,-4.73911 0.7361,-7.39825 3.06473,-20.212016 14.66284,-32.064626 26.14541,-26.719096 3.94713,1.83752 7.71924,6.02375 10.4673,11.61641 2.83486,5.769296 4.20002,10.978066 4.97801,18.993786 l 0.59997,6.18125 3.26753,1.91142 c 2.64984,1.55009 3.35289,1.7766 3.71913,1.19817 1.06434,-1.68108 0.0273,-13.3157 -1.84542,-20.70388 -1.722,-6.793476 -5.93973,-15.247886 -9.63784,-19.318966 -2.92018,-3.21466 -3.41138,-4.78786 -1.60368,-5.13599 2.02531,-0.39005 7.67998,6.681 10.98404,13.73521 3.77232,8.054016 5.61833,17.161636 5.62157,27.734916 l 0.002,6.69413 2.67187,1.52578 c 1.54633,0.88304 2.869,1.33904 3.13982,1.08248 0.81534,-0.77234 0.54856,-17.05978 -0.36203,-22.10364 -2.91613,-16.152626 -9.42632,-28.947086 -20.64292,-40.569476 l -2.80744,-2.90898 -2.72077,3.00654 c -6.95427,7.68472 -15.36245,7.80544 -22.4398,0.3222 -1.4848,-1.56996 -2.89503,-2.85446 -3.13383,-2.85446 -0.23882,0 -2.26849,1.9605 -4.51037,4.35667 -14.1731,15.14854 -21.5742,36.992806 -19.60347,57.859446 0.17849,1.88939 0.4273,3.43525 0.553,3.43525 0.1258,0 1.4667,-0.74057 2.97995,-1.64569 z m 52.3926,-2.16301 c 0.19177,-1.53497 0.23273,-3.08083 0.091,-3.43525 -0.14176,-0.35443 -4.17545,-2.89644 -8.9638,-5.64895 l -8.7061,-5.00457 -8.70607,5.00457 c -4.78836,2.75251 -8.82206,5.29452 -8.96381,5.64895 -0.14176,0.35442 -0.10077,1.90028 0.091,3.43525 l 0.34869,2.79084 h 17.23021 17.23023 z m -26.44578,-12.73138 c 4.60193,-2.65914 8.60514,-4.83479 8.89599,-4.83479 0.29087,0 4.27967,2.17565 8.864,4.83479 4.58434,2.65914 8.4995,4.83479 8.70039,4.83479 0.66417,0 -0.28839,-8.00579 -1.53929,-12.93698 -2.17673,-8.580936 -6.92843,-16.059076 -11.61239,-18.275396 -2.49726,-1.18163 -6.36888,-1.19005 -8.84314,-0.0192 -4.72508,2.23591 -9.46827,9.68254 -11.6529,18.294616 -1.24839,4.9213 -2.2039,12.93698 -1.54216,12.93698 0.19931,0 4.1276,-2.17565 8.7295,-4.83479 z m 12.11584,-44.638296 c 2.02067,-0.59447 7.94739,-5.75599 7.94739,-6.9213 0,-0.46882 -7.58383,-5.8718 -10.07843,-7.18025 -1.00554,-0.52739 -1.51215,-0.41851 -3.56249,0.76581 -3.36396,1.94308 -8.75179,5.91818 -8.75179,6.45698 0,0.24831 1.31684,1.76145 2.92632,3.36249 3.90605,3.88564 7.0261,4.83804 11.519,3.51627 z"
       id="path87"
       sodipodi:nodetypes="ssssssssscssssssssssssssscsssssssssssscscsssssssssssssssssssssssssscsssssssssscscssssssscscccssssssccsssscssssssscsssscssssssccssscssscccsssssssssssssssssss" /></g></svg>
