<?xml version="1.0" encoding="UTF-8" standalone="no"?>
<!-- Created with Inkscape (http://www.inkscape.org/) -->

<svg
   width="162.62773mm"
   height="114.19454mm"
   viewBox="0 0 162.62773 114.19454"
   version="1.1"
   id="svg1"
   xml:space="preserve"
   xmlns:inkscape="http://www.inkscape.org/namespaces/inkscape"
   xmlns:sodipodi="http://sodipodi.sourceforge.net/DTD/sodipodi-0.dtd"
   xmlns="http://www.w3.org/2000/svg"
   xmlns:svg="http://www.w3.org/2000/svg"><sodipodi:namedview
     id="namedview1"
     pagecolor="#ffffff"
     bordercolor="#999999"
     borderopacity="1"
     inkscape:showpageshadow="2"
     inkscape:pageopacity="0"
     inkscape:pagecheckerboard="0"
     inkscape:deskcolor="#d1d1d1"
     inkscape:document-units="mm" /><defs
     id="defs1" /><g
     inkscape:label="Layer 1"
     inkscape:groupmode="layer"
     id="layer1"
     transform="translate(-614.59321,131.97035)"><path
       style="fill:#000000;stroke-width:1.37954"
       d="m 486.26833,-6.8100395 c -2.17021,-0.50948 -5.4835,-2.4186437 -7.29237,-4.2019655 -6.29628,-6.207335 -6.12856,-16.276629 0.37352,-22.426027 6.04571,-5.717785 15.71338,-5.598483 21.58238,0.266334 2.22081,2.219208 3.91906,5.528576 4.53402,8.835412 1.04474,5.61779 -2.23032,12.669285 -7.25072,15.6114351 -3.50452,2.0537851 -8.16976,2.8015191 -11.94683,1.9148114 z m 7.11113,-9.1484995 c 4.1166,-2.31365 4.763,-8.109396 1.2486,-11.195078 -4.57926,-4.02064 -11.50524,-0.958814 -11.50524,5.086217 0,1.740686 0.19147,2.357246 1.18627,3.820016 0.65244,0.959367 1.75858,2.045566 2.45808,2.413775 1.79386,0.944271 4.81134,0.887261 6.61229,-0.124931 z m 39.24436,9.1484995 c -4.11513,-0.9660713 -8.53832,-4.7113755 -10.49023,-8.8825445 -3.4752,-7.426304 0.0622,-17.107174 7.48343,-20.479931 4.17273,-1.896405 8.35772,-1.945206 13.13091,-0.153117 2.70536,1.015722 6.25367,4.40577 7.67223,7.33002 2.86954,5.915352 1.84454,12.789311 -2.61856,17.560713 -3.81385,4.0773206 -9.774,5.8934534 -15.17778,4.6248595 z m 7.11115,-9.1484995 c 4.11658,-2.31365 4.76298,-8.109396 1.24858,-11.195078 -3.33193,-2.925475 -7.69318,-2.308471 -10.52882,1.489556 -1.55332,2.080498 -1.03475,6.766285 0.94905,8.575526 2.27523,2.075045 5.79924,2.553023 8.33119,1.129996 z m 38.58003,8.8497431 c -2.91248,-0.9312323 -4.95935,-2.2146783 -6.98396,-4.3791591 -5.42031,-5.794739 -5.52681,-14.923698 -0.24413,-20.925138 4.61202,-5.239524 12.6816,-6.770514 18.91765,-3.58912 3.55683,1.814558 6.84864,6.00655 7.89652,10.055898 1.77655,6.865126 -1.34939,14.169834 -7.49518,17.5147948 -3.81526,2.0765158 -8.22469,2.5589017 -12.0909,1.3227243 z m 7.97089,-8.9775531 c 0.94864,-0.555939 1.95694,-1.576254 2.53872,-2.56898 0.82642,-1.410206 0.94241,-1.960075 0.80731,-3.827744 -0.17296,-2.391109 -0.77104,-3.45116 -2.9356,-5.203082 -2.61913,-2.119831 -6.64985,-1.589886 -9.17616,1.206447 -5.13565,5.684548 2.12034,14.287825 8.76573,10.393359 z M 463.41261,-52.394531 v -34.310364 h -3.45407 -3.45408 l -2.42517,-4.106292 c -1.33384,-2.25846 -2.74943,-4.640111 -3.14576,-5.292559 l -0.7206,-1.186262 h 38.17268 38.17267 v 16.607677 16.607676 h 31.4289 c 27.40822,0 31.71247,0.07347 33.64554,0.574392 5.89962,1.528741 11.04446,5.725169 13.86259,11.30709 3.08601,6.112531 2.66552,14.702241 -1.00023,20.43274 l -1.2277,1.919204 4.14409,0.131553 c 4.58913,0.145678 5.39059,0.475062 7.05379,2.898978 1.12458,1.638914 0.99516,4.78021 -0.26315,6.3872 -1.47717,1.886501 -2.73935,2.307024 -6.97797,2.32485 l -3.83255,0.01611 0.11506,-3.415087 c 0.2058,-6.109036 -1.78732,-11.156666 -6.07274,-15.379366 -4.0686,-4.009077 -8.9619,-6.016656 -14.66503,-6.016656 -5.88549,0 -10.26095,1.847389 -14.64175,6.181995 -4.4954,4.447987 -6.34491,9.124976 -6.10329,15.433878 l 0.12237,3.193967 -2.55504,6.54e-4 -2.55502,6.54e-4 0.11712,-3.28576 c 0.22688,-6.363321 -1.54101,-10.802744 -6.11017,-15.343393 -4.35914,-4.331957 -8.73726,-6.181995 -14.6297,-6.181995 -5.16257,0 -9.22722,1.462573 -13.37529,4.812802 -4.96383,4.009064 -7.57114,9.699423 -7.53181,16.437883 l 0.0207,3.558786 -2.42322,1.85e-4 -2.42321,1.84e-4 0.1254,-3.225308 c 0.22964,-5.90967 -1.81368,-11.161697 -5.99521,-15.409699 -3.84925,-3.910457 -7.98717,-5.748907 -13.65783,-6.068093 -7.25923,-0.408604 -13.52442,2.431559 -17.7428,8.043241 -3.24337,4.314627 -4.20047,7.248409 -4.21438,12.918201 l -0.01,3.741289 h -2.88697 -2.88697 z m 50.18804,-23.177745 v -7.665081 l -18.48149,-0.09457 -18.48146,-0.09457 -0.1811,1.919592 c -0.16132,1.709782 -0.14374,8.731526 0.031,12.416798 l 0.0652,1.372109 18.52395,-0.09459 18.52394,-0.09459 z m 56.7581,-0.365004 v -6.387569 h -1.82502 -1.82501 v -4.74505 -4.74505 h 11.31511 11.31511 v 4.74505 4.74505 h -1.82501 -1.82502 v 6.387569 6.387567 h -7.66508 -7.66508 z m 1.46001,-25.70096 c 0,-6.21326 -0.21045,-7.28119 -1.75698,-8.91575 -1.36012,-1.43752 -2.70073,-2.06618 -4.4062,-2.06618 -3.0461,0 -4.73428,1.24496 -6.26224,4.61815 -3.63614,8.027318 -13.31791,10.616399 -20.81308,5.56578 -2.10413,-1.41787 -4.55194,-4.793 -5.18048,-7.14299 -0.38369,-1.43461 -0.49072,-1.53763 -1.34787,-1.29753 -3.15022,0.88245 -7.33506,-0.35951 -9.76176,-2.89708 -2.45268,-2.5647 -3.3204,-6.59643 -2.13513,-9.92057 0.4474,-1.2547 0.42981,-1.52256 -0.16775,-2.55503 -3.25284,-5.62033 -1.92163,-13.88533 2.94055,-18.25685 6.58515,-5.92061 16.38422,-5.56291 22.35084,0.81589 0.94741,1.01286 1.91546,2.26493 2.15123,2.78235 0.29468,0.64677 0.60796,0.86617 1.00238,0.70197 5.67575,-2.36255 13.34508,0.48416 15.99966,5.93876 0.50957,1.04705 0.68202,1.13985 1.69577,0.91251 2.32783,-0.52204 6.8895,-0.20454 9.05814,0.63045 4.52931,1.74392 8.08664,5.39501 9.63026,9.88408 0.62417,1.81521 0.69031,3.1964 0.69031,14.41766 v 12.410123 l -6.84383,0.0993 -6.84382,0.0993 z"
       id="path86"
       sodipodi:nodetypes="sssssssssssssssssssssssssssssssssssssssccccsscccccsssscsssscssssscccssssscccsssscccccccccsscccccccccccccccccccccssssssssssssssssssscccs"
       inkscape:export-filename="Inside train.svg"
       inkscape:export-xdpi="199.9"
       inkscape:export-ydpi="199.9" /><path
       style="fill:#000000;stroke-width:0.72917"
       d="m 759.0859,-18.13518 c -1.47456,-0.684165 -1.66587,-0.986712 -6.59991,-10.437333 -4.71774,-9.036314 -7.38723,-14.245057 -7.38723,-14.414071 0,-0.109055 0.67282,-0.436962 1.49517,-0.728696 1.40373,-0.497979 5.56235,-2.075384 14.29257,-5.42131 2.05141,-0.786219 3.85286,-1.4295 4.00321,-1.4295 0.42804,0 0.4068,28.824868 -0.022,29.85113 -1.00914,2.415214 -3.62294,3.581462 -5.78181,2.57978 z M 629.81568,-43.128517 c -4.04506,-0.742076 -7.16722,-2.362961 -9.93392,-5.157227 -8.04942,-8.12965 -6.73398,-21.526973 2.74576,-27.964534 1.50357,-1.021057 3.55746,-1.966797 5.4818,-2.524167 l 1.52316,-0.441169 h 47.74921 c 38.28684,0 48.13152,0.05017 49.67847,0.253051 8.2409,1.080906 14.30192,2.714691 22.18651,5.980525 3.15188,1.305519 10.38178,4.321788 12.69996,5.298335 2.0916,0.8811 2.91891,1.605019 3.13193,2.740497 l 0.12746,0.679367 h 3.1618 3.16181 v -1.482497 c 0,-1.928179 0.47573,-2.988895 1.59709,-3.560965 1.38416,-0.70615 2.86632,-0.224497 3.70838,1.205106 0.36482,0.619371 0.38585,1.002047 0.38585,7.021633 V -54.714 l -0.46496,0.747982 c -0.91757,1.476065 -2.80237,1.831455 -4.06747,0.76694 -0.88178,-0.741959 -1.03851,-1.158125 -1.15182,-3.058326 l -0.10353,-1.736335 h -3.08682 -3.08681 l -0.11606,1.079309 c -0.13322,1.238932 -0.58402,2.114555 -1.30881,2.542221 -0.67576,0.398739 -17.05833,6.653183 -20.01314,7.640501 -4.57241,1.527821 -9.94113,2.73494 -15.31443,3.443328 -2.17518,0.286761 -7.06369,0.32241 -49.87139,0.363659 -38.14326,0.03675 -47.72683,-0.0029 -48.82003,-0.203796 z m 15.93934,-8.709617 c 1.54211,-0.452413 3.03185,-1.361542 4.23116,-2.582098 4.49517,-4.574796 3.21016,-12.359002 -2.51751,-15.250319 -4.84507,-2.445781 -10.54283,-0.555569 -12.99785,4.31198 -1.85414,3.676211 -1.14536,7.955955 1.8141,10.953768 1.32059,1.337698 2.29618,1.941654 4.05495,2.510275 1.36857,0.442468 4.00557,0.469928 5.41515,0.05636 z m -4.89504,-3.545448 c -1.45517,-0.568585 -2.53832,-1.579899 -3.25815,-3.042081 -0.55523,-1.127843 -0.63318,-1.472777 -0.62018,-2.744149 0.0192,-1.87059 0.6531,-3.286397 2.02315,-4.518183 1.88562,-1.695334 4.5143,-2.047078 6.81905,-0.912453 2.32061,1.142433 3.52067,3.250885 3.34806,5.882407 -0.11469,1.748629 -0.74755,3.033426 -2.08769,4.238327 -1.6124,1.449684 -4.16769,1.899691 -6.22424,1.096132 z m 43.67319,3.541963 c 3.09665,-0.918776 5.53221,-3.2047 6.54218,-6.140235 2.3865,-6.936488 -3.8192,-14.089189 -10.91881,-12.585051 -6.85453,1.452214 -9.97319,9.017232 -6.11706,14.838338 1.24657,1.881783 3.00441,3.17608 5.28554,3.891746 1.2019,0.377075 3.92954,0.37456 5.20815,-0.0051 z m -4.25759,-3.342178 c -1.60783,-0.490848 -3.06901,-1.729131 -3.88491,-3.292259 -0.63188,-1.210567 -0.65266,-3.910026 -0.0403,-5.237785 1.19338,-2.587655 4.33114,-4.079492 7.06019,-3.356747 5.89676,1.561655 6.3736,9.552245 0.69872,11.708538 -0.9705,0.368756 -2.91371,0.459107 -3.83369,0.178253 z m 42.99717,3.372825 c 1.69215,-0.450379 3.13448,-1.286394 4.36534,-2.530277 4.61963,-4.668493 3.36918,-12.39912 -2.48462,-15.360569 -3.74644,-1.895331 -8.18392,-1.169092 -11.12732,1.821108 -2.30237,2.338972 -3.27268,5.506419 -2.62435,8.566846 0.75318,3.555372 3.07111,6.17837 6.48992,7.344086 1.49649,0.510258 3.80464,0.578377 5.38103,0.158806 z m -4.47021,-3.459582 c -2.5391,-0.945164 -4.07744,-3.180353 -4.06504,-5.90647 0.0134,-2.950577 1.77349,-5.149125 4.72815,-5.906069 3.04032,-0.778899 6.35604,1.111816 7.2316,4.123658 0.85577,2.943723 -0.45848,5.991025 -3.19021,7.39706 -1.07217,0.551851 -3.58692,0.707842 -4.7045,0.291821 z m 37.4171,-18.835105 c -4.5475,-1.903622 -8.92042,-3.701892 -9.7176,-3.996156 -0.79718,-0.294264 -1.48731,-0.632 -1.53362,-0.750527 -0.0708,-0.181271 2.34485,-4.926889 7.55028,-14.832729 0.55759,-1.061095 1.81763,-3.475594 2.80008,-5.365558 0.98244,-1.889961 1.99524,-3.684651 2.25065,-3.988181 1.07674,-1.27965 3.36461,-1.73255 4.9999,-0.98977 0.96337,0.43757 2.07068,1.6971 2.36984,2.69562 0.16158,0.5393 0.2239,4.916369 0.2239,15.724935 0,14.138474 -0.0189,14.97723 -0.33762,14.970566 -0.18569,-0.0036 -4.05831,-1.564572 -8.60581,-3.4682 z m -105.89922,-9.3061 c 3.09822,-3.962511 7.39516,-9.161286 8.19942,-9.92027 2.01183,-1.89859 4.77826,-3.308899 7.28999,-3.71641 0.72999,-0.118431 4.59932,-0.203452 9.29775,-0.204306 l 8.04744,-0.0015 0.0555,-9.036045 0.0555,-9.03603 0.55208,-0.79641 c 0.60488,-0.87255 1.8411,-1.58417 2.74034,-1.57744 1.50096,0.0112 2.97787,1.2877 3.34788,2.89352 0.12009,0.5212 0.20101,4.17662 0.20386,9.20835 l 0.004,8.344055 h 3.66236 3.66237 l 0.0515,-16.171735 0.0515,-16.17173 0.53076,-0.80196 c 1.22451,-1.85018 3.52066,-2.10226 5.11761,-0.56184 1.22052,1.17732 1.2005,0.8752 1.2005,18.11527 v 15.591995 h 2.11495 c 2.74011,0 3.85856,0.387036 5.30851,1.83699 1.73785,1.737851 1.9124,2.418515 1.99023,7.761082 l 0.0653,4.48553 h -31.86928 c -25.46736,0 -31.83138,-0.04842 -31.6807,-0.241158 z"
       id="path88" /></g></svg>
