<?xml version="1.0" encoding="UTF-8" standalone="no"?>
<svg
   xml:space="preserve"
   viewBox="0 0 110.45669 127.22628"
   version="1.1"
   id="svg1"
   sodipodi:docname="alarm.svg"
   inkscape:version="1.3.2 (091e20e, 2023-11-25, custom)"
   xmlns:inkscape="http://www.inkscape.org/namespaces/inkscape"
   xmlns:sodipodi="http://sodipodi.sourceforge.net/DTD/sodipodi-0.dtd"
   xmlns="http://www.w3.org/2000/svg"
   xmlns:svg="http://www.w3.org/2000/svg"><defs
   id="defs1" /><sodipodi:namedview
   id="namedview1"
   pagecolor="#ffffff"
   bordercolor="#999999"
   borderopacity="1"
   inkscape:showpageshadow="2"
   inkscape:pageopacity="0"
   inkscape:pagecheckerboard="0"
   inkscape:deskcolor="#d1d1d1"
   inkscape:zoom="1.5367503"
   inkscape:cx="138.92953"
   inkscape:cy="90.125246"
   inkscape:window-width="1366"
   inkscape:window-height="745"
   inkscape:window-x="-8"
   inkscape:window-y="-8"
   inkscape:window-maximized="1"
   inkscape:current-layer="svg1" />
  <path
   d="M4.74459 124.983938c-2.0188-1.230932-3.97243-3.440833-4.34138-4.910899-.36886-1.470112-.51084-19.846797-.31549-40.837106l.35552-38.164162 4.82947-9.742351C11.0159 19.74399 19.84026 10.8471 30.87999 5.51175 62.1819-9.616 99.84874 7.7264 108.59129 41.291243c2.20542 8.467275 2.58031 74.889764.44908 79.567381-2.80292 6.151687-4.69633 6.372187-54.67648 6.367581-43.66977-.0041-46.13116-.11535-49.6196-2.242267zM62.014 98.652962c14.4386-2.663251 27.02429-12.414421 33.29584-25.796963 2.65904-5.674061 3.07003-7.999441 3.07003-17.369653 0-9.370178-.41103-11.695571-3.07003-17.369616C88.9683 24.58479 76.40169 14.9381 61.62466 12.25851c-18.26706-3.31245-37.46002 6.82654-46.3768 24.49934-3.14914 6.241525-3.41638 7.706475-3.41638 18.728496 0 11.022042.26728 12.487031 3.41638 18.728545 6.21388 12.315727 18.55075 21.927916 31.36846 24.440481 7.11736 1.39522 7.8213 1.395091 15.39768-.0024zm-4.75211-33.109899-8.41957-8.164029v-14.61187c0-13.093484.23673-14.848554 2.2776-16.889464 2.69463-2.69466 4.47137-2.85247 7.46918-.6634 1.92932 1.40881 2.26008 3.32867 2.59994 15.08903l.38952 13.474844 5.58932 5.910486c3.07411 3.250806 5.5893 6.709887 5.5893 7.686877 0 2.040361-3.94135 6.331555-5.81536 6.331555-.69309 0-5.04898-3.673813-9.67977-8.164029z"
   id="path1" />
<path
   id="path3"
   style="fill:#000000;fill-rule:evenodd;fill-opacity:1"
   d="M 140.80078 3.6816406 C 133.15357 3.6816406 126.99609 9.837155 126.99609 17.484375 L 126.99609 114.11328 C 126.99609 121.7605 133.15357 127.91602 140.80078 127.91602 L 222.70312 127.91602 C 230.35036 127.91602 236.50781 121.7605 236.50781 114.11328 L 236.50781 17.484375 C 236.50781 9.837155 230.35036 3.6816406 222.70312 3.6816406 L 140.80078 3.6816406 z M 142.85938 15.412109 L 176.68945 15.412109 L 176.68945 61.197266 L 137.33789 61.197266 L 137.33789 20.933594 C 137.33789 17.874705 139.80049 15.412109 142.85938 15.412109 z M 185.89258 15.412109 L 220.64453 15.412109 C 223.70342 15.412109 226.16602 17.874705 226.16602 20.933594 L 226.16602 61.197266 L 185.89258 61.197266 L 185.89258 15.412109 z M 201.05859 21.271484 C 201.05859 21.271484 194.82799 23.704065 193.67383 25.703125 C 192.51966 27.702185 193.20408 30.257953 195.20312 31.412109 C 197.20219 32.566271 199.75795 31.881876 200.91211 29.882812 C 202.06627 27.88375 201.05859 21.271484 201.05859 21.271484 z M 162.50391 23.710938 C 162.50391 23.710937 156.2733 26.143518 155.11914 28.142578 C 153.96497 30.141638 154.64938 32.697406 156.64844 33.851562 C 158.64751 35.005724 161.20326 34.321328 162.35742 32.322266 C 163.51158 30.323204 162.50391 23.710938 162.50391 23.710938 z M 222.04492 32.169922 C 222.04492 32.169922 215.81432 34.602502 214.66016 36.601562 C 213.50599 38.600624 214.19041 41.158342 216.18945 42.3125 C 218.18852 43.466662 220.74428 42.780312 221.89844 40.78125 C 223.0526 38.782188 222.04492 32.169922 222.04492 32.169922 z M 201.54688 43.394531 C 201.54687 43.394531 195.31627 45.829065 194.16211 47.828125 C 193.00794 49.827185 193.69235 52.382953 195.69141 53.537109 C 197.69046 54.691271 200.24623 54.006876 201.40039 52.007812 C 202.55455 50.00875 201.54688 43.394531 201.54688 43.394531 z M 158.27344 46.160156 C 158.27344 46.160156 152.04283 48.59469 150.88867 50.59375 C 149.7345 52.59281 150.41891 55.148578 152.41797 56.302734 C 154.41704 57.456896 156.97279 56.7725 158.12695 54.773438 C 159.28111 52.774374 158.27344 46.160156 158.27344 46.160156 z M 137.33789 70.400391 L 176.68945 70.400391 L 176.68945 116.18555 L 142.85938 116.18555 C 139.80049 116.18555 137.33789 113.72295 137.33789 110.66406 L 137.33789 70.400391 z M 185.89258 70.400391 L 226.16602 70.400391 L 226.16602 110.66406 C 226.16602 113.72295 223.70342 116.18555 220.64453 116.18555 L 185.89258 116.18555 L 185.89258 70.400391 z M 219.76758 76.09375 C 219.76758 76.09375 213.53697 78.526325 212.38281 80.525391 C 211.22864 82.524447 211.91305 85.08217 213.91211 86.236328 C 215.91118 87.390486 218.46693 86.704144 219.62109 84.705078 C 220.77525 82.706022 219.76758 76.09375 219.76758 76.09375 z M 152.0918 81.951172 C 152.0918 81.951172 145.86119 84.383756 144.70703 86.382812 C 143.55286 88.38188 144.23727 90.937639 146.23633 92.091797 C 148.2354 93.245965 150.79115 92.561566 151.94531 90.5625 C 153.09947 88.563434 152.0918 81.951172 152.0918 81.951172 z M 169.98633 85.529297 C 169.98633 85.529297 163.75572 87.961876 162.60156 89.960938 C 161.44739 91.959998 162.1318 94.517717 164.13086 95.671875 C 166.12993 96.826037 168.68764 96.139687 169.8418 94.140625 C 170.99596 92.141563 169.98633 85.529297 169.98633 85.529297 z M 200.57031 92.6875 C 200.57031 92.6875 194.33971 95.120085 193.18555 97.119141 C 192.03138 99.118207 192.7158 101.67592 194.71484 102.83008 C 196.71391 103.98425 199.27162 103.2979 200.42578 101.29883 C 201.57994 99.29976 200.57031 92.6875 200.57031 92.6875 z M 161.20117 99.845703 C 161.20117 99.845703 154.97057 102.27829 153.81641 104.27734 C 152.66224 106.2764 153.3486 108.83217 155.34766 109.98633 C 157.34671 111.14049 159.90248 110.4561 161.05664 108.45703 C 162.2108 106.45797 161.20117 99.845703 161.20117 99.845703 z "
   inkscape:export-filename="..\Nature\windowrain2.svg"
   inkscape:export-xdpi="199.9"
   inkscape:export-ydpi="199.9" /></svg>
