<svg xmlns="http://www.w3.org/2000/svg" xml:space="preserve" viewBox="0 0 157.51498 127.28223">
  <path d="M20.80396 125.56757c-1.5645-1.095798-2.95255-3.969082-3.84589-7.961031-.90203-4.03068-1.97874-6.24639-3.03529-6.24639-3.42559 0-9.42818-3.800412-11.63021-7.363421C.21311 100.632176.00004 98.356546.00004 79.515935c0-18.840566.2132-21.11624 2.29253-24.480792 4.34759-7.034541 6.27837-7.363381 43.23681-7.363381 30.73633 0 33.51148-.1642 36.79011-2.173972 10.99847-6.74277 25.59628-7.22097 37.80445-1.23837 5.89436 2.888532 8.30053 3.412342 15.67431 3.412342 9.72175 0 14.64495 1.61733 18.87353 6.200184 2.83382 3.071226 2.84324 3.156034 2.84324 25.660969v22.579511l-3.36464 3.511945c-1.85055 1.931584-5.27103 4.083119-7.60104 4.781184-3.84357 1.151592-4.36269 1.795796-5.59861 6.947634-1.74581 7.277367-4.39213 9.929024-9.90904 9.929024-5.64285 0-9.08808-2.557823-10.0012-7.42506-.8528-4.545975-.48666-4.440964-7.77628-2.229595-3.07062.931512-7.71168 1.693623-10.31356 1.693623-5.70939 0-15.77114-2.82613-20.63116-5.794883-3.13137-1.9128-5.87824-2.166149-23.48537-2.166149H38.89483l-1.39995 5.835674c-.76998 3.209637-2.35635 6.792118-3.52532 7.961075-2.60648 2.606481-9.71414 2.828194-13.1656.4105zm89.92285-23.562777c6.70877-2.010031 12.75872-8.54824 14.97993-16.188953 1.68369-5.791744 1.68369-6.808021 0-12.599766-6.86751-23.623432-40.41885-23.052682-46.13735.784806-4.41452 18.401741 12.49123 33.596426 31.15742 28.003913zm-82.2309-16.625157c5.65789-4.581479 1.78436-13.824732-5.79346-13.824732-3.46901 0-7.91763 4.473029-7.91763 7.961031 0 1.082345 1.06073 3.316323 2.35714 4.96447 2.82273 3.588499 7.56862 3.964396 11.35395.899231zm23.88313 0c5.6579-4.581479 1.78437-13.824732-5.79346-13.824732-3.469 0-7.91761 4.473029-7.91761 7.961031 0 1.082345 1.06072 3.316323 2.35712 4.96447 2.82274 3.588499 7.56863 3.964396 11.35395.899231zM68.64989 25.83695c-9.48685-9.19889-11.00514-12.43225-7.48881-15.94858 3.48082-3.48078 6.76082-2.00298 15.38756 6.93272 8.3343 8.63288 9.54483 12.30782 5.0834 15.43273-1.3902.97377-2.9801 1.77044-3.53309 1.77044-.553 0-4.80509-3.68427-9.44906-8.18731zm54.17772 5.9127c-1.25102-1.251-2.2746-3.13526-2.2746-4.18726s4.0012-5.91395 8.89156-10.80427c4.89036-4.89036 9.75227-8.8916 10.80427-8.8916 2.41932 0 6.46191 3.9748 6.46191 6.35355 0 3.48899-17.28673 19.80419-20.98342 19.80419-.34388 0-1.64871-1.02354-2.89972-2.27461zm-23.88313-2.27454c-1.97131-1.97131-2.27461-3.79101-2.27461-13.64751 0-9.85656.30347-11.67621 2.27461-13.64752 2.57996-2.57999 3.77337-2.76982 6.8985-1.0973 1.98617 1.063 2.1998 2.49503 2.1998 14.74482 0 12.24978-.21363 13.6818-2.1998 14.74476-3.12513 1.67252-4.31854 1.4827-6.8985-1.09725z"/>
</svg>
