<svg xmlns="http://www.w3.org/2000/svg" xml:space="preserve" viewBox="0 0 73.321877 133.90289">
  <path d="M32.44559436 133.15256624c-4.91143672-2.03149598-7.63058798-9.16853546-5.47541025-14.37151458 1.14594351-2.76661092 4.90245443-5.89330998 7.08034272-5.89330998 1.04952716 0 1.3447007-.91329567 1.3447007-4.16039573 0-4.07773948-.05446712-4.16561947-2.73893143-4.42444974l-2.73896329-.26405403V38.30401006l2.73896329-.26405402c2.7218587-.26246142 2.73893143-.29272093 2.73893143-4.84582137v-4.58176734H13.48364867v4.63515149c0 4.58173548.0286669 4.63515148 2.51220809 4.63515148 1.90634902 0 2.62375418.4573008 2.97482818 1.8961882.2544984 1.04290191.35645701 13.46299672.22678706 27.60020715l-.23570565 25.7039871-6.96427361.24494276-6.96427361.24494276.22232775-27.63448003.22232776-27.63444818 2.78100807-.26723924 2.78103993-.26723923-.25290579-4.36791225-.25258726-4.3679441-5.26722484-.25099465c-2.89694976-.13791966-5.26722483-.59088857-5.26722483-1.00643125 0-.41554268.91495198-1.81961571 2.033216-3.12010568l2.03318414-2.36457353 31.99955743-.2395279 31.99955744-.2395279 2.62703495 2.21050486c4.09758336 3.44786393 3.49344431 4.58893407-2.42948814 4.58893407h-5.0565231v4.58176734c0 4.55313228.01592606 4.5833918 2.73896328 4.84582136l2.73896329.26405402v76.6905897l-3.33341929.11721578-10.58907604.37260603.21914255-38.59020575.21914254-38.59020576 2.73896328-.26405402c2.7218587-.26246142 2.73893143-.29272093 2.73893143-4.84582136v-4.58176734H37.92377574v4.58176734c0 4.55313228.01592606 4.5833918 2.73896329 4.84582136l2.73896328.26405402.22041663 33.07810187.22041663 33.07807002H40.8831238c-2.94431387 0-2.95944362.01911127-2.95944362 3.78110075 0 3.48834796.21754994 3.87191112 2.80814607 4.95437336 4.26267286 1.78107466 6.4676036 5.10891983 6.43231146 9.70807842-.01592606 2.13918798-.51606795 4.76555404-1.11026914 5.83639026-2.38737964 4.30226504-8.82660301 6.3901711-13.6080831 4.4124415zm8.57643651-5.305957c2.46751957-2.74125664 2.76234274-4.1742514 1.48424481-7.21396234-1.40872344-3.35039646-4.41132667-4.63977004-7.94003127-3.40967325-4.6082683 1.60646137-5.70321657 6.90700351-2.15893629 10.45125194 2.63579429 2.63579429 6.33076692 2.7097549 8.61472275.17231994zm-7.27960954-3.0992744c-1.17591634-2.19719068-.27488374-4.18192775 2.17811126-4.79759727 3.54354768-.88937472 6.01737397 2.9132899 3.51991342 5.41075046-1.54629273 1.54632458-4.72542038 1.20420102-5.69802468-.6131532zm3.9927899-58.53300544c-.20672022-10.53295262-.399967-11.90896394-1.70791035-12.1599586-1.35129409-.2592762-1.47481658.76922855-1.47481658 12.27962699 0 6.90945612.24940205 12.81219433.55451345 13.11717833.30514325.30482473 1.0735755.12390472 1.70791035-.40270628.89762443-.7449254 1.10170092-3.59094363.92030313-12.83414044zm-.09141557-19.41743092c-.8008577-2.08695051-3.09134322-1.61499774-3.09134322.63694672 0 1.08153853.26182438 2.22827834.58190627 2.54832838.94747299.94747298 3.06426893-1.7394121 2.50943695-3.1852751zM15.1691033 17.7177021c0-.89338809.99926452-2.41034502 2.22053827-3.37100478 1.88577256-1.4833211 3.40495914-1.74667437 10.0761296-1.74667437h7.85559132l.24749092-6.042569c.34610507-8.44597025 2.19234916-8.84510909 2.52708302-.5462956l.24876501 6.16749298 8.29298455.42137162c7.8002642.39633585 8.41364036.56187129 10.32374793 2.78594515 1.11689438 1.30052181 2.03073153 2.722655 2.03073153 3.1603349 0 .47876912-8.72840295.79576136-21.9116107.79576136-21.07472827 0-21.91161071-.06211162-21.91161071-1.62436226z"/>
</svg>
